<?xml version="1.0" encoding="utf-8"?>
<!-- Generator: Adobe Illustrator 23.0.0, SVG Export Plug-In . SVG Version: 6.00 Build 0)  -->
<svg version="1.1" id="Layer_1" xmlns="http://www.w3.org/2000/svg" xmlns:xlink="http://www.w3.org/1999/xlink" x="0px" y="0px"
	 viewBox="0 0 2767.3 2799.4" style="enable-background:new 0 0 2767.3 2799.4;" xml:space="preserve">
<style type="text/css">
	.st0{fill:#371A45;stroke:#FFFFFF;stroke-width:10;stroke-miterlimit:10;}
	.st1{fill:#FFFFFF;}
	.st2{fill:#371A45;}
	.st3{opacity:0.35;}
	.st4{opacity:0.7;}
	.st5{fill:#111A28;}
	.st6{fill:#F92323;}
	.st7{opacity:0.5;}
	.st8{fill:#C5D3E2;}
	.st9{opacity:0.6;}
	.st10{fill:#3AAAFF;}
	.st11{fill:#DB2C2C;}
	.st12{fill:#22A7F0;}
	.st13{opacity:0.15;}
	.st14{opacity:0.2;}
	.st15{fill:#102770;}
	.st16{opacity:0.3;}
	.st17{fill:#FFF2BD;}
</style>
<title>astraunaut</title>
<g id="astraunaut">
	<path class="st0" d="M2034.8,2538.1c383.1-231.9,640.4-661.5,640.4-1153.3c0-737.8-579.1-1335.9-1293.5-1335.9
		S88.2,647,88.2,1384.8c0,491.7,257.3,921.4,640.4,1153.3c197.5-3.7,419-5.7,653.1-5.7S1837.3,2534.4,2034.8,2538.1z"/>
	<path class="st1" d="M2174.1,2186.9c-28.2-74.6-68.4-145.6-119.6-211.3v-83.3c0-41.6-17.1-81.3-48.5-112.6l1-8.8
		c3.9-33.1-6.3-65.2-28.8-90.6c-23.7-26.6-58.2-41.9-94.8-41.9h-3.6c3.1-3.9,6.1-7.9,9-11.9c3.8-4.2,6.8-8,9.4-11.5
		c38.3-51.8,67.7-109.7,86.8-171.2c82.6-12,142.6-84.7,138.6-168.1l-5.6-119.3c-4-84.1-71.7-151.2-155.9-154.4
		c-29.7-69.2-71.6-132.5-123.6-186.9c-116.4-122.1-273.4-191.6-442-195.6c-5.3-0.1-10.7-0.2-16-0.2c-162.5,0-316.9,62-434.9,174.4
		c-76.4,72.7-133.4,163.5-165.8,263.9c-83.6,11-144.8,84.2-140.9,168.4l5.6,119.3c3.8,84.4,72,151.7,156.4,154.4
		c21.3,49.5,48.8,96.1,82,138.6h-3c-36.6,0-71.1,15.3-94.8,41.9c-21.4,24.1-31.7,54.4-29.3,85.8c-11.7,9.5-22.3,20.3-31.3,32.4
		c-21,27.9-32.1,60.4-32.1,93.9v106.3c-43,59.2-77.4,122.5-102.3,188.2c-39,103.1-40.7,184-5.2,240.6H573
		c49,40.6,101,77.6,155.5,110.6c197.5-3.7,419-5.7,653.1-5.7s455.6,2.1,653.1,5.7c54.5-33,106.4-70,155.5-110.6h-11
		C2214.9,2370.9,2213.1,2290,2174.1,2186.9z"/>
	<path class="st1" d="M2164.3,644.4c0.5,71.9,27.4,141,75.6,194.3c2.6,2.9,3,7.2,0.9,10.6l-42.6,72.9c-13.9,23.8-5.9,54.5,17.9,68.4
		c15.6,9.1,34.9,9.1,50.4,0l109.5-63.9c1.2-0.7,2.5-1.1,3.9-1.1c0.6,0,1.2,0.1,1.7,0.2c24,6.4,48.8,9.8,73.7,10h2.4
		c45.5,0,90.4-10.7,131.1-31.3c-69.8-186.9-179-353.5-317.2-489C2205.7,470.1,2163.6,552.7,2164.3,644.4z"/>
	<path class="st1" d="M2019.9,1892.4v432.3c0,19.8-5,39.2-14.6,56.6c-25.6,47.5-82.4,80.7-147.9,80.7h-968
		c-55.1,0-104-23.4-133.3-59.1c-18.3-22.2-29.1-49.1-29.1-78.1v-432.4c0-26.8,9.3-51.9,25.2-73.1c28.8-38.5,79.6-64.1,137.2-64.1
		h968c7.7,0,15.4,0.5,23,1.4C1959,1766,2019.9,1823.5,2019.9,1892.4z"/>
	<path class="st2" d="M1857.5,2476.6h-968c-57.3,0-111.3-24.1-144.6-64.4c-21.2-25.7-32.4-55.9-32.4-87.4v-432.3
		c0-29.1,9.7-57.4,28.1-81.9c32.8-43.8,88.4-69.9,148.8-69.9h968c8.3,0,16.6,0.5,24.8,1.5c86.7,10.5,152.2,75.1,152.2,150.3v432.3
		c0,22.2-5.6,44.1-16.3,63.5C1989.2,2441.9,1926.2,2476.6,1857.5,2476.6z M889.5,1769.7c-51.3,0-98.2,21.8-125.6,58.3
		c-14.6,19.4-22.3,41.7-22.3,64.4v432.3c0,24.6,8.9,48.4,25.8,68.9c27.8,33.7,73.4,53.9,122.1,53.9h968c58.1,0,111.1-28.7,135.1-73
		c8.4-15.2,12.8-32.3,12.8-49.7v-432.4c0-60.5-54.4-112.7-126.6-121.4c-7-0.9-14.1-1.3-21.2-1.3H889.5z"/>
	<path class="st1" d="M1385.8,1634.9c330.7,54.7,639.2,255.6,756,564.2c94.4,249.4-77.1,262.9-77.1,262.9H699.6
		c0,0-171.4-13.4-77-262.9c116.8-308.6,425.3-509.5,756-564.2"/>
	<g class="st3">
		<path class="st2" d="M2064.7,2462H699.6c0,0-119.9-9.4-103.9-158.4c0.2,1.8,0.5,3.6,0.8,5.3c11.5,73,110.9,87.2,144,21.2l15-29.9
			h1252.5l16.1,31.4c33.5,65.5,131.8,50.9,143.8-21.7c0.4-2.1,0.7-4.2,0.9-6.4C2184.7,2452.6,2064.7,2462,2064.7,2462z"/>
	</g>
	<path class="st1" d="M643.7,2312.7c0,0,65.3-196.9,241.2-197.5c162.3-0.5,224.2,80.4,186.2,191.6c-18.9,55.3-221.1,107.6-315.7-6.5
		"/>
	<g class="st3">
		<path class="st2" d="M1071.1,2306.8c-18.9,55.3-221.1,107.6-315.7-6.5l0,0c0-20,22.1-31.7,38.9-20.8
			c102.3,66.7,260.2,20.5,276.8-28.1c3.5-10.1,6.2-20.4,8.2-30.9C1084.6,2246,1081.9,2275.2,1071.1,2306.8z"/>
	</g>
	<path class="st2" d="M639.1,2311.2c0.3-23.1,8.3-43.9,18.5-63.3c10.1-19.6,23.2-37.5,37.9-54s30.6-32.2,48.6-45.5
		c18-13.5,37.8-24.5,58.8-32.6c21.1-8.1,43.3-13,65.8-14.5l16.8-0.6c5.4,0.1,10.9,0.1,16.3,0.3c10.9,0.4,21.8,1.1,32.8,2.4
		c21.8,2.5,43.8,6.9,65,14.8s41.9,19.3,58.9,35.8c17.3,16.7,29.3,38.2,34.5,61.7c5.2,23.2,4.1,47-0.8,69.1c-1.1,5.6-2.7,11-4.1,16.4
		l-2.5,8l-0.6,2c-0.2,0.7-0.7,1.7-1,2.5l-2.3,5.2c-7.3,12.6-17.1,20.5-26.8,27.3c-19.7,13.2-41,21-62.5,26.8
		c-43.1,11-88.3,13.1-132.3,3.9c-5.5-1.2-11-2.4-16.3-4.1c-5.4-1.4-10.8-3.4-16.1-5.2s-10.6-4.1-15.9-6.1
		c-5.1-2.4-10.5-4.5-15.5-7.4c-5.1-2.7-9.9-5.8-14.5-9.3c-4.6-3.4-9-7.2-12.9-11.4c-8.2-8.4-14.1-18.7-17.1-30.1
		c-0.7-2.9,1-5.8,3.9-6.5c0,0,0,0,0,0c1-0.2,2-0.2,3,0.1l0.5,0.2c5.7,1.9,10.1,4.6,14.8,7s8.7,5.2,13,7.6c2.1,1.3,4.1,2.6,6.1,4
		s4.2,2.4,6.2,3.8s4,2.7,6.1,3.9s4.2,2.5,6.2,3.8c16.2,10.7,35.2,17.1,54.5,21.3c38.8,8.2,80.2,6.4,118.8-3.6
		c19.2-5.2,38.1-12.4,53.6-22.8c7.6-5.1,14.3-11.3,17.6-17.1c0.3-0.7,0.6-1.4,0.9-2c0.2-0.4,0.4-0.7,0.5-1.1l0.6-1.8l2.3-7.1
		c1.3-4.8,2.7-9.5,3.6-14.3c4.2-19.1,4.8-38.6,0.8-56.6c-3.9-18.1-13.1-34.5-26.4-47.3c-13.3-12.9-30.3-22.6-48.7-29.3
		s-38.2-10.9-58.3-13.1c-10-1.2-20.2-1.8-30.4-2.2l-15.3-0.2l-14.8,0.5c-19.7,1.3-39.1,5.5-57.5,12.6c-36.7,14.1-69.5,39-94.7,70.4
		c-6.3,7.9-12.3,16-17.9,24.4s-11.3,16.8-16.8,25.3c-10.8,17.2-21.5,34.6-35.4,51.2l-0.2,0.3c-1.8,2.1-5,2.4-7.1,0.6c0,0,0,0,0,0
		C639.7,2314.2,639.1,2312.7,639.1,2311.2z"/>
	<path class="st1" d="M2119.6,2312.7c0,0-65.3-196.9-241.2-197.5c-162.3-0.5-224.2,80.4-186.2,191.6
		c18.9,55.3,221.1,107.6,315.7-6.5"/>
	<path class="st1" d="M2119.6,2312.7c0,0-65.3-196.9-241.2-197.5c-162.3-0.5-224.2,80.4-186.2,191.6
		c18.9,55.3,221.1,107.6,315.7-6.5L2119.6,2312.7z"/>
	<g class="st3">
		<path class="st2" d="M2007.9,2300.3c-94.6,114.1-296.7,61.8-315.7,6.5c-10.8-31.6-13.5-60.8-8.1-86.3c1.9,10.5,4.7,20.8,8.1,30.9
			c16.6,48.6,174.5,94.8,276.8,28.1C1985.7,2268.6,2007.9,2280.3,2007.9,2300.3z"/>
	</g>
	<path class="st2" d="M2115,2314.2c-13.9-16.6-24.6-34-35.4-51.2c-5.5-8.6-11-17-16.8-25.3s-11.6-16.5-17.9-24.4
		c-25.2-31.4-58-56.2-94.7-70.4c-18.4-7.1-37.8-11.3-57.5-12.6l-14.9-0.5l-15.3,0.2c-10.2,0.4-20.4,1-30.4,2.2
		c-20.1,2.3-39.9,6.3-58.3,13.1s-35.4,16.4-48.7,29.3c-13.3,12.8-22.5,29.3-26.5,47.3c-4,18.1-3.4,37.5,0.9,56.6
		c0.9,4.8,2.3,9.5,3.6,14.3l2.2,7.1l0.6,1.8c0.1,0.4,0.3,0.8,0.5,1.1c0.3,0.7,0.6,1.3,0.9,2c3.3,5.8,10,12,17.6,17.1
		c15.4,10.4,34.4,17.6,53.6,22.8c38.6,9.9,80.1,11.8,118.8,3.6c19.3-4.2,38.3-10.6,54.5-21.3c2-1.3,4.1-2.6,6.2-3.8s4-2.6,6.1-3.9
		s4.1-2.5,6.2-3.8s4-2.7,6.1-4c4.3-2.4,8.3-5.3,13-7.6s9.1-5.1,14.8-7l0.6-0.2c2.8-0.9,5.9,0.6,6.8,3.4c0.3,1,0.4,2,0.1,3
		c-3,11.3-8.9,21.7-17.1,30.1c-3.9,4.2-8.3,8-12.9,11.4c-4.6,3.5-9.4,6.6-14.5,9.3c-5,2.9-10.3,4.9-15.5,7.4
		c-5.3,2-10.5,4.3-15.9,6.1s-10.6,3.8-16.1,5.2c-5.4,1.6-10.9,2.9-16.4,4.1c-44,9.2-89.2,7.1-132.3-3.9
		c-21.5-5.9-42.7-13.6-62.5-26.8c-9.7-6.7-19.5-14.7-26.8-27.3l-2.4-5.2c-0.3-0.8-0.8-1.9-1-2.5l-0.6-2l-2.5-8
		c-1.4-5.4-3-10.9-4.1-16.4c-4.9-22.1-5.9-45.9-0.8-69.1c5.2-23.5,17.2-45,34.5-61.7c17.1-16.6,37.7-28.1,58.9-35.8
		s43.2-12.3,65-14.8c10.9-1.3,21.9-2,32.8-2.4c5.4-0.2,10.9-0.2,16.3-0.3l16.8,0.6c22.5,1.5,44.7,6.4,65.8,14.5
		c21,8.1,40.8,19.1,58.8,32.6c18,13.4,33.7,29.1,48.6,45.5s27.8,34.4,37.9,54c10.3,19.4,18.2,40.2,18.5,63.3c0.1,2.8-2.2,5.1-5,5.2
		c-1.5,0-3-0.6-4-1.8L2115,2314.2z"/>
	<path class="st2" d="M2065.3,2476.6H698.4c-2.5-0.2-62-5.4-96.2-59.3c-32.3-51-30.1-126.1,6.7-223.2
		c111.2-293.8,405.2-513.6,767.2-573.4c4,0.3,8,0.3,12,0c362,59.9,656,279.6,767.2,573.4c36.8,97.1,39,172.3,6.7,223.3
		c-34.1,53.8-93.7,59.1-96.2,59.3H2065.3z M1385.3,2447.5h678.8c5.2-0.6,48.6-6.3,73.6-46.1c26.6-42.3,23.3-110.4-9.5-197
		c-107.6-284.2-392.9-496.8-744.8-555c-0.4-0.1-0.9-0.2-1.3-0.3c-0.4,0.1-0.8,0.2-1.3,0.3c-351.8,58.2-637.2,270.9-744.8,555
		c-32.8,86.6-36.1,154.8-9.5,197c25,39.8,68.2,45.6,73.7,46.2L1385.3,2447.5z"/>
	<path class="st1" d="M1967.7,1410.9L1967.7,1410.9c-6.7,0.3-12.4-4.9-12.7-11.6c0,0,0,0,0,0l-16.5-350c-0.3-6.7,4.9-12.4,11.6-12.7
		l0,0c70.4-3.3,130.1,51.1,133.5,121.4c0,0,0,0,0,0l5.6,119.3C2092.5,1347.8,2038.1,1407.5,1967.7,1410.9
		C1967.7,1410.9,1967.7,1410.9,1967.7,1410.9z"/>
	<path class="st2" d="M1967.1,1413.5c-7.9,0-14.4-6.2-14.8-14.1l-16.5-350c-0.4-8.1,5.9-15.1,14.1-15.4
		c71.8-3.3,132.8,52.1,136.2,124l5.6,119.3c3.4,71.8-52.1,132.8-123.9,136.2l0,0L1967.1,1413.5z M1956.1,1039.1c-2,0-4,0-5.9,0.1
		c-5.3,0.3-9.3,4.7-9.1,10l16.5,350c0.3,5.3,4.7,9.3,10,9.1l0,0c68.9-3.3,122.2-61.8,119-130.7l-5.6-119.3
		C2077.8,1091.3,2022.4,1039.1,1956.1,1039.1L1956.1,1039.1z"/>
	<g class="st3">
		<path class="st2" d="M2086.5,1221.4l2.6,56c3.3,70.4-51.1,130.1-121.4,133.5c-6.7,0.3-12.4-4.9-12.7-11.6l-4.4-93
			c2.1,4.3,6.6,6.9,11.4,6.7l8.3-0.4C2024.5,1310,2071.1,1273.5,2086.5,1221.4z"/>
	</g>
	<path class="st2" d="M1967.1,1425.4c-14.2,0-26-11.2-26.7-25.4l-16.5-350c-0.7-14.7,10.7-27.2,25.4-27.9
		c78.3-3.7,145,57,148.7,135.3l5.7,119.4c3.7,78.3-57,145-135.3,148.7l0,0C1967.9,1425.4,1967.5,1425.4,1967.1,1425.4z
		 M1953.1,1051.1l16.3,345.1c61.3-4.2,108.1-56.7,105.2-118.1l-5.6-119.3C2066.1,1097.3,2014.3,1049.4,1953.1,1051.1L1953.1,1051.1z
		"/>
	<path class="st1" d="M794.9,1091L794.9,1091c6.7-0.3,12.4,4.9,12.7,11.6c0,0,0,0,0,0l16.5,349.9c0.3,6.7-4.9,12.4-11.6,12.7
		c0,0,0,0,0,0l0,0c-70.4,3.3-130.1-51-133.5-121.4c0,0,0,0,0,0l-5.6-119.3C670.2,1154.1,724.6,1094.3,794.9,1091z"/>
	<path class="st2" d="M806.5,1468c-69,0-126.7-54.4-130-124.1l-5.6-119.3c-3.4-71.8,52.1-132.8,123.9-136.2l0,0
		c8.1-0.4,15.1,5.9,15.4,14c0,0,0,0,0,0l16.5,350c0.4,8.1-5.9,15.1-14,15.5C810.6,1468,808.6,1468,806.5,1468z M795.1,1093.6
		c-68.9,3.3-122.2,61.8-119,130.7l5.6,119.3c3.2,68.8,61.8,122.2,130.7,119c5.3-0.3,9.3-4.7,9.1-10l-16.5-350
		C804.7,1097.4,800.3,1093.4,795.1,1093.6L795.1,1093.6z"/>
	<g class="st3">
		<path class="st2" d="M819.6,1355.5l4.6,97.1c0.3,6.7-4.9,12.4-11.6,12.7c-70.4,3.3-130.1-51-133.4-121.4c0,0,0,0,0,0l-2.4-50.3
			c22.8,44.6,69.6,71.7,119.6,69.4l12.8-0.6C813.6,1362.1,817.6,1359.5,819.6,1355.5z"/>
	</g>
	<path class="st2" d="M806.5,1479.9c-75.3,0-138.3-59.4-141.9-135.5l-5.6-119.3c-3.7-78.3,57-145,135.3-148.7l0,0
		c14.7-0.7,27.2,10.7,27.9,25.4l16.5,350c0.7,14.7-10.7,27.2-25.4,27.9C811,1479.9,808.7,1479.9,806.5,1479.9z M793.3,1105.7
		c-61.3,4.2-108.1,56.7-105.2,118.1l5.6,119.3c3,61.4,54.4,109.2,115.9,107.7L793.3,1105.7z"/>
	<circle class="st1" cx="1381.4" cy="1250.9" r="597"/>
	<path class="st2" d="M1381.6,1850.6c-4.9,0-9.7-0.1-14.6-0.2c-330.5-7.9-593-283.3-585.1-613.8c3.8-160.1,69.8-309.2,185.7-419.7
		s268-169.2,428.1-165.4s309.2,69.8,419.7,185.7s169.3,268,165.4,428.1l0,0C1973,1590.9,1705.6,1850.6,1381.6,1850.6z M1381,656.6
		c-153.4,0-298.3,58-409.8,164.2C856.3,930.3,791,1078,787.2,1236.7c-7.8,327.7,252.3,600.6,580,608.5s600.6-252.4,608.5-580
		l2.6,0.1l-2.6-0.1c3.8-158.7-54.4-309.4-164-424.3s-257.3-180.3-416-184.1C1390.7,656.6,1385.9,656.5,1381,656.6L1381,656.6z"/>
	<g class="st3">
		<path class="st2" d="M1974.5,1182.5c3.2,27.5,4.4,55.1,3.8,82.8c-7.9,329.6-281.5,590.4-611.1,582.6s-590.4-281.5-582.6-611.1
			c0.2-9.5,0.7-19,1.3-28.3c33.3,291.5,277.2,521.1,578.8,528.4C1684.8,1744.4,1952.1,1498.6,1974.5,1182.5z"/>
	</g>
	<path class="st2" d="M1381.6,1862.5c-5,0-9.9-0.1-14.8-0.2c-337.1-8.1-604.8-288.9-596.8-626s288.7-604.8,626-596.8
		c163.3,3.9,315.3,71.2,428,189.4s172.6,273.3,168.7,436.6l0,0C1984.8,1597.7,1712,1862.5,1381.6,1862.5z M1381,668.5
		c-150.3,0-292.4,56.8-401.5,160.9C866.9,936.7,802.8,1081.5,799.1,1237c-7.7,321.1,247.3,588.5,568.4,596.2
		s588.5-247.3,596.3-568.3s-247.3-588.6-568.4-596.2C1390.6,668.5,1385.8,668.5,1381,668.5L1381,668.5z M1978.2,1265.2
		L1978.2,1265.2z"/>
	<path class="st2" d="M1976,1280.5c-1,116.8-39.9,224.9-105.6,314.1c-49.2,66.8-250.1,182.8-497,182.9c-228.9,0-436-123.8-484-191.5
		c-64.1-90.3-101-199.1-100-315.9c2.7-309.1,269.5-435,597.1-432.1S1978.7,971.4,1976,1280.5z"/>
	<path class="st2" d="M1373.3,1792c-236.8,0-445.5-126.7-495.8-197.6c-68.2-96.1-103.7-208.3-102.7-324.5
		c1.3-151.3,63-267.4,183.4-345.1c105.1-67.8,253.2-103,428.4-101.3s322.7,39.2,426.6,108.9c118.9,79.8,178.6,197,177.3,348.3l0,0
		c-1,116.1-38.5,227.7-108.4,322.6c-48.4,65.8-247.4,188.7-508.7,188.8L1373.3,1792z M1375.5,852.5c-164.8,0-303.4,33.4-401.5,96.8
		c-111.6,72.1-168.8,180-170.1,321c-1,110,32.7,216.3,97.3,307.4c45.9,64.7,248.5,185.4,472.1,185.4h0.1
		c247.8-0.1,441.2-117.2,485.2-177c66.2-89.9,101.8-195.6,102.7-305.6c3.4-381.6-401-426.3-575-427.9
		C1382.8,852.5,1379.1,852.5,1375.5,852.5z M1976,1280.5L1976,1280.5z"/>
	<g class="st4">
		
			<ellipse transform="matrix(0.187 -0.9824 0.9824 0.187 234.9007 2757.7769)" class="st1" cx="1783.6" cy="1237" rx="105.6" ry="76.6"/>
	</g>
	<g class="st4">
		
			<ellipse transform="matrix(0.3209 -0.9471 0.9471 0.3209 -222.6828 2580.1055)" class="st1" cx="1687.9" cy="1445.3" rx="48.5" ry="41.6"/>
	</g>
	<g class="st3">
		<path class="st5" d="M1863.1,991.1c71.9,69.8,113.9,165.2,112.8,289.4c-1,116.8-39.9,225-105.5,314.1
			c-49.2,66.8-250.2,182.8-497,182.9c-87.2,0-171.1-17.9-244.4-43.9c303.4-6.6,548.2-148.9,609.2-231.8
			c83.3-113.2,132.7-250.4,134-398.7C1872.7,1065.6,1869.6,1028.1,1863.1,991.1z"/>
	</g>
	<path class="st2" d="M1927.3,1023.5c-3.4,0-6.6-1.2-9.2-3.3l-1.5-1.3l-1.2-1.7c-99.4-142.1-293.3-224.8-531.7-226.9
		c-239.6-2.2-434.8,79.8-535.2,224.7l-0.7,1c-4.9,6.4-14.1,7.5-20.4,2.6c-6.4-4.9-7.5-14.1-2.6-20.4l0,0
		c106-152.7,309.9-239.1,559.1-236.8c247.8,2.2,450.1,89.3,555.1,239c4.8,6.5,3.4,15.6-3,20.4
		C1933.4,1022.5,1930.3,1023.5,1927.3,1023.5L1927.3,1023.5z"/>
	<g class="st4">
		<path class="st1" d="M921,1455.1c0,0-93.1-305.8,72.4-425.9s401.9-117.5,396.2-102.4c0,0-262.3,61.1-366.6,267.1
			C942.6,1352.8,921,1455.1,921,1455.1z"/>
	</g>
	<path class="st2" d="M212.1,2575.1c48.7-7.7,97.5-9.6,146.2-10.5c24.4-0.5,48.7-0.6,73.1-0.5c24.4,0,48.7,0.3,73.1,0.6
		c48.7,0.5,97.5,0.6,146.2,0.5h1608.2h73.1l36.6-0.4l36.6-0.6c48.7-0.2,97.5,0.3,146.2,10.9c2.7,0.6,4.5,3.3,3.9,6.1
		c-0.4,1.9-1.9,3.4-3.9,3.9c-48.7,10.7-97.5,11.1-146.2,10.9l-36.6-0.6l-36.6-0.4h-73.1H650.7c-48.7-0.1-97.5,0.1-146.2,0.5
		c-24.4,0.3-48.7,0.6-73.1,0.6c-24.4,0.1-48.7,0-73.1-0.5c-48.7-0.9-97.5-2.8-146.2-10.5c-2.7-0.3-4.7-2.8-4.4-5.5
		C207.9,2577.2,209.8,2575.4,212.1,2575.1L212.1,2575.1z"/>
	<path class="st6" d="M439.7,2462h1884.1c30.5,0,55.2,24.7,55.2,55.2v1.8c0,30.5-24.7,55.2-55.2,55.2H439.7
		c-30.5,0-55.2-24.7-55.2-55.2v-1.8C384.5,2486.7,409.2,2462,439.7,2462z"/>
	<path class="st2" d="M2323.7,2576.3h-1884c-31.6,0-57.2-25.7-57.3-57.3v-1.8c0-31.6,25.6-57.2,57.3-57.3h1884
		c31.6,0,57.2,25.6,57.3,57.3v1.8C2381,2550.6,2355.3,2576.2,2323.7,2576.3z M439.7,2464.1c-29.3,0-53,23.8-53.1,53.1v1.8
		c0,29.3,23.8,53,53.1,53.1h1884c29.3,0,53-23.8,53.1-53.1v-1.8c0-29.3-23.8-53-53.1-53.1H439.7z"/>
	<path class="st2" d="M2323.7,2588.7h-1884c-38.5,0-69.7-31.2-69.7-69.7v-1.8c0-38.5,31.2-69.7,69.7-69.7h1884
		c38.5,0,69.7,31.2,69.7,69.7v1.8C2393.4,2557.5,2362.2,2588.7,2323.7,2588.7z M439.7,2476.6c-22.4,0-40.6,18.2-40.6,40.6v1.8
		c0,22.4,18.2,40.6,40.6,40.6h1884c22.4,0,40.6-18.2,40.6-40.6v-1.8c0-22.4-18.2-40.6-40.6-40.6L439.7,2476.6z"/>
	<g class="st7">
		<path class="st1" d="M2324.6,2478.7H438.8c-21.1,0-38.2,17.7-38.2,39.4c-0.1,15.3,8.6,29.3,22.4,35.9c-4.2-6.5-6.4-14-6.3-21.7
			c0-21.8,17.1-39.4,38.2-39.4h161.5c8.4,9.6,35.4,16.6,67.7,16.6s59.3-7,67.7-16.6h1589c5.5,0,10.8,1.2,15.8,3.6
			C2349.6,2485.4,2337.6,2478.7,2324.6,2478.7z"/>
	</g>
	<path class="st8" d="M760.3,2365.4h1242.1l0,0v4.5c0,48.4-39.2,87.7-87.7,87.7H848c-48.4,0-87.6-39.3-87.7-87.7V2365.4
		L760.3,2365.4z"/>
	<g class="st3">
		<path class="st2" d="M2002.4,2365.4v4.5c0,48.4-39.3,87.7-87.7,87.7H848c-48.4,0-87.7-39.3-87.7-87.7v-4.5h3.9
			c11.4,36.7,45.3,61.8,83.8,61.8h1066.8c38.5,0,72.4-25.1,83.8-61.8L2002.4,2365.4z"/>
	</g>
	<path class="st2" d="M1914.8,2472.1H848c-56.4-0.1-102.1-45.8-102.2-102.2v-19H2017v19C2016.9,2426.3,1971.2,2472,1914.8,2472.1z
		 M775.6,2380c5.1,36.1,36,63,72.4,63h1066.8c36.5,0,67.3-26.9,72.4-63H775.6z"/>
	<g class="st9">
		<path class="st1" d="M816.3,2394.5h1165.3c1.5-4,2.7-8.2,3.5-12.5H777.6c5,27.2,24.8,49.1,50.4,56.4c-9.5-7.5-16.9-17.3-21.7-28.4
			C803.3,2402.7,808.6,2394.5,816.3,2394.5z"/>
	</g>
	<path class="st10" d="M1810.7,2456.6h-858c-45.8,0-84.3-32.4-89.3-75.2l-72.7-614.5c-5.9-50.1,35.8-93.9,89.3-93.9h1003.3
		c53.6,0,95.3,43.8,89.3,93.9l-72.6,614.5C1895,2424.2,1856.5,2456.6,1810.7,2456.6z"/>
	<g class="st9">
		<path class="st1" d="M1441.7,2131.6l0.5-0.2c2.9-1.3,6.4,0.1,7.6,3c0.8,1.8,0.6,3.8-0.4,5.4c-8.9,14.5-22.3,25.8-38.2,32.1
			c-37.4,14.9-80.8-1-99.4-36.7c-20.4-38.7-5.5-86.6,33.2-107c16.4-8.6,35.4-11.2,53.5-7.4c2.9,0.6,4.8,3.5,4.2,6.4
			c-0.4,1.7-1.5,3.2-3.1,3.9l-0.2,0.1c-27.5,12.2-39.9,44.4-27.7,71.9C1383.6,2129.9,1414.5,2142.5,1441.7,2131.6z"/>
	</g>
	<path class="st2" d="M1824.8,1832.6c-0.3-8-0.4-16.2-3.2-23.9c-0.8-0.8-1.6-1.6-2.4-2.3c-2.4-0.5-4.8-1.2-7.3-1.4
		c-17.3-1.9-34.7-0.9-51.6,3.1c-22.2,5.3-41.8,15.4-57.4,32.3c-5.6,6.1-10.6,12.8-15.8,19.4c-1.4,1.8-2.5,2.6-4.9,1.9
		c-5.7-1.5-11.6-1.9-17.4-1.2c-15.7,1.6-28.8,8.8-40.6,18.9c-12.7,11-22.3,24.5-30.9,38.8c-3.7,6-1,11.8,6,13l13.3,2.2
		c10.6,1.8,21.2,3.5,31.7,5.2c0,0.2,0.1,0.4,0.1,0.6c-0.1,0.2-0.1,0.4-0.2,0.7c-3.4,6-1.6,10.9,3.5,14.9c0.6,0.4,1.1,1,1.6,1.5
		c2.8,2.7,5.6,5.4,8.6,8.2c-3,3.1-5.9,5.8-8.4,8.9c-1.3,1.6-2.2,3.6-2.6,5.7c-0.4,3.2,1.6,6.3,4.6,7.4c2.9,1.4,6.4,0.7,8.7-1.6
		c3.1-3,6-6.2,9.1-9.4c4,3.9,7.8,7.6,11.6,11.2c4.3,4.1,7,4.6,12.4,2.1c1-0.5,2-0.9,3.1-1.3c0.3,1.2,0.5,2.1,0.7,3.1
		c2.9,14.5,5.8,29,8.8,43.4c1.4,6.8,7.3,9.3,13.1,5.4c5.2-3.5,10.4-7.2,15.5-11c11.7-8.8,21.9-19,29.5-31.7
		c9.4-15.9,13.4-32.7,7.6-50.9c-0.2-0.9,0.1-1.9,0.8-2.6c5.1-4.5,10.4-8.8,15.5-13.3c11.4-10.2,20.4-22.8,26.3-36.9
		C1822.4,1873.7,1825.6,1853.4,1824.8,1832.6z M1650.6,1923.3l-38-6.3c10.8-15.6,22.6-29.6,40.1-37.3c7.6-3.4,16.8-4.6,22.5-3.2
		C1667.1,1892,1659,1907.5,1650.6,1923.3L1650.6,1923.3z M1757.8,1968.5c-1.5,9.9-6,18.5-12,26.4c-7.4,9.8-16.5,17.6-26.6,25
		c-2.7-13.3-5.3-26.4-7.9-39.1c15.5-8.9,30.7-17.6,46-26.3C1758.5,1959.1,1758.7,1963.9,1757.8,1968.5L1757.8,1968.5z
		 M1805.2,1869.6c-3.4,13.3-8.7,25.8-17.2,36.7c-6.7,8.3-14.3,15.7-22.8,22.1c-22.7,17.8-47.9,31.4-73.8,43.7
		c-1.3,0.6-2.1,0.6-3.1-0.4c-2.3-2.4-4.8-4.7-7.2-7.1c-0.2-0.3-0.4-0.5-0.5-0.8c0.6-0.7,1.3-1.3,1.9-2
		c13.7-14.3,27.5-28.5,41.3-42.8c4-4.1,3.3-10-1.4-12.7c-3.3-1.9-7.1-1.3-10,1.7c-8.3,8.5-16.5,17.1-24.8,25.6
		c-6.1,6.4-12.3,12.7-18.6,19.3c-3-2.9-5.8-5.5-8.4-8.2c-0.4-0.5-0.3-2,0.1-2.7c6.4-13.6,12.7-27.2,19.5-40.7
		c6.7-13.3,14.7-26,23.8-37.7c8.5-11.1,18.1-21.3,30.4-28.4c7.8-4.5,16.2-8,25-10.4c1-0.1,2.1,0.3,2.8,1.1
		c10.9,10.4,21.6,20.8,32.4,31.2c3.2,3.1,6.4,6.3,9.8,9.3C1805.3,1867.2,1805.6,1868.5,1805.2,1869.6z M1808.1,1852.3l-31.8-30.7
		c0-0.3,0-0.6,0-0.9l31.4-0.9C1809.1,1830.6,1809.2,1841.5,1808.1,1852.3z"/>
	<path class="st1" d="M1804.3,1866.4c-3.3-3.1-6.5-6.2-9.8-9.3c-10.8-10.4-21.6-20.9-32.4-31.2c-0.7-0.8-1.7-1.1-2.8-1.1
		c-8.8,2.3-17.2,5.8-25,10.4c-12.3,7.1-21.9,17.2-30.4,28.4c-9.1,11.8-17.1,24.4-23.8,37.7c-6.8,13.4-13.1,27.1-19.5,40.7
		c-0.4,0.8-0.6,2.2-0.1,2.7c2.6,2.8,5.5,5.4,8.4,8.2c6.4-6.6,12.5-12.9,18.6-19.3c8.2-8.6,16.5-17.1,24.8-25.6c3-3,6.8-3.6,10-1.7
		c4.7,2.8,5.4,8.6,1.4,12.7c-13.7,14.3-27.5,28.5-41.3,42.8c-0.7,0.7-1.3,1.4-1.9,2c0.1,0.3,0.3,0.6,0.5,0.8
		c2.4,2.4,4.9,4.6,7.2,7.1c1.1,1.1,1.9,1,3.1,0.4c26-12.3,51.1-25.9,73.8-43.7c8.5-6.4,16.1-13.8,22.8-22.1
		c8.5-10.9,13.8-23.4,17.2-36.7C1805.6,1868.4,1805.3,1867.2,1804.3,1866.4z M1779.8,1888.5c-10.3,10.8-27.4,11.2-38.2,0.9
		c-10.8-10.3-11.2-27.4-0.9-38.2s27.4-11.2,38.2-0.9c0,0,0.1,0,0.1,0.1C1789.6,1860.7,1790,1878,1779.8,1888.5z"/>
	<path class="st11" d="M1808.1,1852.3l-31.8-30.7c0-0.3,0-0.6,0-0.9c10.4-0.3,20.9-0.6,31.4-0.9
		C1809.1,1830.6,1809.2,1841.5,1808.1,1852.3z"/>
	<path class="st11" d="M1675.3,1876.5l-24.6,46.9c-12.3-2.1-25-4.2-38-6.3c10.8-15.6,22.6-29.6,40.1-37.4
		C1660.4,1876.3,1669.5,1875.1,1675.3,1876.5z"/>
	<path class="st11" d="M1745.8,1994.9c-7.4,9.8-16.5,17.6-26.6,25c-2.7-13.3-5.3-26.4-7.9-39.1c15.5-8.9,30.7-17.6,46-26.4
		c1.2,4.6,1.4,9.4,0.5,14.1C1756.3,1978.4,1751.8,1987,1745.8,1994.9z"/>
	<path class="st2" d="M1779,1850.4c-10.7-10.3-27.8-10-38.2,0.7c-10.3,10.7-10,27.8,0.7,38.2c10.7,10.3,27.8,10,38.2-0.7
		c0,0,0-0.1,0.1-0.1C1790,1878,1789.6,1860.7,1779,1850.4z M1770.3,1879.8c-5.6,5.5-14.6,5.5-20.1-0.1c-5.5-5.6-5.5-14.6,0.1-20.1
		c5.5-5.5,14.4-5.5,19.9-0.1C1775.8,1865.1,1775.9,1874.2,1770.3,1879.8C1770.3,1879.8,1770.3,1879.8,1770.3,1879.8z"/>
	<path class="st12" d="M1770.3,1879.8c-5.6,5.5-14.6,5.5-20.1-0.1s-5.5-14.6,0.1-20.1c5.5-5.5,14.4-5.5,19.9-0.1
		C1775.8,1865.1,1775.9,1874.2,1770.3,1879.8C1770.3,1879.8,1770.3,1879.8,1770.3,1879.8z"/>
	<g class="st3">
		<path class="st2" d="M1858.6,2383.1l72.6-614.5c2-16.8-3.2-33.4-14.6-46.7c-12.9-15.1-32-23.9-52.8-24.6c0,0,0-0.1,0-0.1
			c-29.7,102-195.3,671.1-980,692.7c6.9,29.4,35.3,50.8,68.8,50.8h835.8C1824.6,2440.7,1854.7,2415.9,1858.6,2383.1z"/>
	</g>
	<g class="st9">
		<path class="st1" d="M904.5,2393.5l-72.6-614.5c-2.1-17.8,3.4-35.3,15.4-49.4c14.1-16.5,35.2-25.9,58-25.9h1003.3
			c7.7,0,15.3,1.1,22.6,3.3c-1.5-2.3-3.1-4.4-4.9-6.5c-14.1-16.4-35.2-25.9-57.9-25.9H865.1c-22.7,0-43.8,9.4-57.9,25.9
			c-12,14-17.5,31.6-15.4,49.4l72.6,614.5c3.2,27.3,23.7,49.3,50.7,57.3C909.4,2413.2,905.8,2403.6,904.5,2393.5z"/>
	</g>
	<path class="st2" d="M1810.7,2471.1h-858c-53.2,0-97.8-37.9-103.8-88l-72.6-614.5c-3.2-27.3,5.3-53.9,23.9-74.9
		c19.9-22.4,49-35.2,79.8-35.2h1003.3c30.8,0,59.9,12.8,79.8,35.2c18.7,21,27.2,47.6,23.9,74.9l-72.6,614.5
		C1908.6,2433.3,1864,2471.1,1810.7,2471.1z M880,1687.6c-22.6,0-43.7,9.3-58.1,25.4c-13.1,14.7-19,33.2-16.8,52.2l72.6,614.5
		c4.2,35.6,36.4,62.4,74.9,62.4h858c38.5,0,70.7-26.8,74.9-62.4l72.6-614.5c2.2-19-3.7-37.5-16.8-52.2
		c-14.4-16.2-35.6-25.4-58.1-25.4H880z"/>
	<g class="st3">
		<path class="st2" d="M468.9,2574.2h1855.8c30,0,54.3-25.1,54.3-56.1l0,0c0-31-24.3-56.1-54.3-56.1h-747.2
			c-29.5,16.6-250.9,119.8-1164.8,93.1L468.9,2574.2z"/>
	</g>
	<g class="st13">
		<path class="st1" d="M990.9,1811.8h56c20.1,0,36.4,16.3,36.4,36.4v184.8c0,20.1-16.3,36.4-36.4,36.4h-56
			c-20.1,0-36.4-16.3-36.4-36.4v-184.8C954.5,1828,970.8,1811.8,990.9,1811.8z"/>
	</g>
	<path class="st2" d="M1451.7,2121.6l0.5-0.2c2.9-1.3,6.4,0.1,7.6,3c0.8,1.8,0.6,3.8-0.4,5.4c-8.9,14.5-22.3,25.8-38.2,32.1
		c-37.4,14.9-80.8-1-99.4-36.7c-20.4-38.7-5.5-86.6,33.2-107c16.4-8.6,35.4-11.2,53.5-7.4c2.9,0.6,4.8,3.5,4.2,6.4
		c-0.4,1.7-1.5,3.2-3.1,3.9l-0.2,0.1c-27.5,12.2-39.9,44.4-27.7,71.9C1393.6,2119.9,1424.5,2132.5,1451.7,2121.6z"/>
	<path class="st6" d="M2241.5,962.3c-8.3,0-15-6.7-15.1-14.9c0-2.7,0.7-5.3,2.1-7.6l42.6-72.9c9.8-16.5,7.7-37.4-5.1-51.7
		c-42.4-47-66.1-107.9-66.6-171.1c-1.1-141,112.7-258,253.6-260.7c1.7,0,3.4,0,5.1,0c142.9,0,258.7,115.8,258.8,258.6
		c0,1.4,0,2.8,0,4.2c-2.2,140.3-118.3,254.5-258.7,254.5h-2.2c-21.9-0.2-43.7-3.1-64.9-8.8c-3.5-0.9-7.2-1.4-10.8-1.4
		c-7.6,0-15,2-21.5,5.8l-109.5,63.9C2246.8,961.6,2244.1,962.3,2241.5,962.3z"/>
	<path class="st2" d="M2458,398.3c135.9,0,245.8,111.2,243.7,247.6c-2.1,132.4-111.5,239.7-243.7,239.7h-2.1
		c-20.6-0.2-41.2-3-61.1-8.3c-4.8-1.3-9.7-1.9-14.7-1.9c-10.2,0-20.3,2.7-29.1,7.9l-109.5,64l42.6-72.9c13-22.2,10.2-50.2-7-69.3
		c-40-44.2-62.3-101.7-62.7-161.3c-1-132.8,106.1-243,238.9-245.6C2454.8,398.3,2456.4,398.3,2458,398.3 M2458,368.3
		c-1.8,0-3.6,0-5.4,0c-149.1,2.9-269.5,126.6-268.3,275.8c0.5,67,25.6,131.4,70.5,181.1c8.4,9.4,9.8,23.2,3.3,34.1l-42.6,72.9
		c-8.3,14.3-3.4,32.7,10.9,41c9.3,5.4,20.8,5.4,30.1,0l109.5-63.9c4.2-2.5,9.1-3.8,14-3.8c2.3,0,4.7,0.3,6.9,0.9
		c22.4,6,45.5,9.1,68.6,9.3h2.4c148.6,0,271.3-120.8,273.7-269.3c2.4-151.1-118.1-275.6-269.2-278.1
		C2461,368.3,2459.5,368.3,2458,368.3L2458,368.3z"/>
	<g class="st14">
		<path class="st15" d="M2701.4,630.7c-0.1-2.7-0.3-5.3-0.5-8c-0.1-1.4-0.2-2.7-0.4-4.1c-0.3-2.7-0.6-5.4-0.9-8
			c-0.1-1.2-0.3-2.3-0.4-3.5c-0.5-3.5-1.1-7-1.8-10.5c-0.3-1.5-0.6-3-0.9-4.5c-0.4-2.1-0.9-4.1-1.4-6.2c-0.4-1.8-0.9-3.6-1.3-5.4
			s-0.9-3.3-1.4-5c-0.6-1.9-1.1-3.9-1.7-5.8c-0.4-1.2-0.8-2.3-1.1-3.4c-1.5-4.5-3.1-8.9-4.8-13.3c-0.2-0.6-0.5-1.3-0.7-1.9
			c-1-2.4-2-4.8-3-7.2l-1-2.2c-1.1-2.5-2.3-4.9-3.5-7.4c-0.1-0.2-0.2-0.4-0.3-0.6c-5.5-11-11.7-21.6-18.8-31.6
			c12.3,30.3,18.4,62.8,17.8,95.6c-1.8,113.8-82.8,208.9-189.4,233.5c-113,25-178.8,3.9-218.8-35.6c-0.2-0.2-16.2-38.5-16.4-38.7
			c-6.7-7.4-12.9-15.3-18.6-23.5l0,0c0.9,2.3,1.9,4.5,2.9,6.7l-0.1-0.1c10.5,23.7,24.7,45.6,42.1,64.9c17.2,19.1,20,47.1,7,69.3
			l-42.6,72.9l109.5-64c13.2-7.8,29-9.9,43.8-6c19.9,5.3,40.5,8.1,61.1,8.3c3.8,0,7.6,0,11.4-0.2c3.5-0.1,7-0.4,10.5-0.7
			c0.5,0,1-0.1,1.6-0.1c3.2-0.3,6.4-0.7,9.5-1.1c0.8-0.1,1.6-0.2,2.4-0.3c3-0.4,5.9-0.9,8.9-1.4c1-0.2,1.9-0.3,2.9-0.5
			c2.8-0.5,5.6-1.1,8.3-1.8c1.1-0.3,2.2-0.5,3.2-0.7c2.7-0.6,5.3-1.4,7.9-2.1c1.1-0.3,2.3-0.6,3.5-1c2.5-0.8,5-1.6,7.6-2.4
			c1.2-0.4,2.4-0.8,3.6-1.2c2.4-0.8,4.8-1.7,7.2-2.7c1.2-0.5,2.5-0.9,3.7-1.4c2.3-0.9,4.6-1.9,6.9-2.9c1.3-0.6,2.5-1.1,3.8-1.7
			c2.2-1,4.4-2.1,6.6-3.2c1.3-0.6,2.6-1.3,3.9-1.9c2.1-1.1,4.2-2.2,6.3-3.4c1.3-0.7,2.6-1.4,3.9-2.2c2-1.2,4-2.4,6-3.6
			c1.3-0.8,2.6-1.6,3.9-2.4c1.9-1.2,3.8-2.5,5.7-3.8c1.3-0.9,2.6-1.8,3.9-2.7c1.8-1.3,3.6-2.7,5.4-4c1.3-1,2.6-1.9,3.8-2.9
			c1.7-1.4,3.4-2.8,5.1-4.2c1.3-1,2.5-2.1,3.8-3.2c1.6-1.4,3.3-2.9,4.9-4.3c1.2-1.1,2.5-2.3,3.7-3.4c1.6-1.5,3.1-3,4.6-4.5
			c1.2-1.2,2.4-2.4,3.6-3.7c1.5-1.5,2.9-3.1,4.3-4.6c1.2-1.3,2.3-2.6,3.5-3.9c1.4-1.6,2.7-3.1,4.1-4.7c1.1-1.4,2.2-2.8,3.4-4.1
			c1.3-1.6,2.5-3.2,3.8-4.8c1.1-1.4,2.2-2.9,3.2-4.4c1.2-1.6,2.4-3.3,3.5-4.9s2.1-3.1,3.1-4.6s2.2-3.3,3.2-5s1.9-3.2,2.9-4.9
			s2-3.4,2.9-5.1s1.8-3.4,2.7-5.1s1.8-3.4,2.6-5.2s1.7-3.6,2.5-5.3s1.6-3.4,2.4-5.2s1.5-3.7,2.3-5.5s1.4-3.5,2.1-5.3
			c0.7-1.9,1.4-3.8,2.1-5.8c0.6-1.8,1.3-3.5,1.8-5.3c0.6-2,1.2-4,1.8-6c0.5-1.8,1.1-3.5,1.6-5.3c0.6-2.1,1.1-4.2,1.6-6.3
			c0.4-1.7,0.9-3.5,1.3-5.2c0.5-2.2,0.9-4.4,1.3-6.6c0.3-1.7,0.7-3.4,1-5.1c0.4-2.3,0.7-4.7,1-7c0.2-1.6,0.5-3.2,0.7-4.8
			c0.3-2.6,0.5-5.3,0.7-8c0.1-1.4,0.3-2.7,0.4-4.1c0.3-4,0.4-8.1,0.5-12.2c0.1-3.9,0-7.8-0.1-11.6
			C2701.5,633.1,2701.5,631.9,2701.4,630.7z"/>
	</g>
	<g class="st7">
		<path class="st1" d="M2572.9,571.1c-26.7-26.7-71.4-26-101.8,0.8c-13.4-11.9-30.3-19.1-48.2-20.5c-20.4-1.4-39.5,5.6-53.5,19.6
			c-29.1,29.2-29.1,76.4,0,105.6l82.1,82.2c10.8,10.8,28.4,10.8,39.2,0l82.1-82.2C2602,647.6,2602,600.3,2572.9,571.1z"/>
	</g>
	<g class="st7">
		<path class="st1" d="M2227.4,661.4c-1-132.8,106.1-243,238.9-245.6c74.5-1.5,145.5,31.1,192.8,88.6
			c-46.3-67.9-123.8-107.8-205.9-106.1c-132.7,2.6-239.9,112.8-238.9,245.6c0.4,55.7,19.9,109.6,55.4,152.6
			C2242.5,756.8,2227.8,709.7,2227.4,661.4z"/>
	</g>
	<path class="st1" d="M2364,565.8L2364,565.8c24.9-24.9,65.3-20.4,90.2,4.5l3.9,3.9l3.9-3.9c24.9-24.9,65.3-29.4,90.2-4.5l0,0
		c24.9,24.9,24.9,65.3,0,90.2c0,0,0,0,0,0l-3.9,3.9l-78.3,78.3c-6.6,6.6-17.2,6.6-23.8,0l-78.3-78.3l-3.9-3.9
		C2339.1,631,2339.1,590.7,2364,565.8C2364,565.8,2364,565.8,2364,565.8z"/>
	<path class="st2" d="M2458,753c-7.1,0-14-2.8-19-7.8l-82.1-82.2c-28.8-28.8-28.8-75.5,0-104.3c0,0,0,0,0,0l0,0
		c26.6-26.6,71.1-25.6,101.1,1.4c30-27,74.5-28,101.1-1.4c28.8,28.8,28.8,75.5,0,104.3l-82.1,82.2C2471.9,750.2,2465.1,753,2458,753
		z M2405,559.3c-12.6,0-24.8,4.5-33.9,13.6l0,0c-21,21-21,55,0,76l82.1,82.2c2.7,2.6,7,2.6,9.6,0l82.1-82.2c20.9-21,20.9-55,0-76
		c-19.7-19.7-53.8-17.7-76,4.5l-3.9,3.9c-3.9,3.9-10.2,3.9-14.1,0l-3.9-3.9C2435.1,565.3,2419.7,559.3,2405,559.3L2405,559.3z
		 M2364,565.8L2364,565.8z"/>
	<g class="st16">
		<path class="st2" d="M2681.7,2618.7c0,50.7-585.4,91.8-1307.5,91.8S66.7,2669.4,66.7,2618.7c0-14.2,46.3-27.8,128.9-39.8h2357.1
			C2635.4,2590.9,2681.7,2604.5,2681.7,2618.7z"/>
	</g>
	<path class="st17" d="M613.7,1621.1l-35.2,5.4c-7,1.1-12.6,6.6-13.7,13.7l-5.4,35.2l-5.4-35.2c-1.1-7-6.6-12.6-13.7-13.7l-35.2-5.4
		l35.2-5.4c7-1.1,12.6-6.6,13.7-13.7l5.4-35.2l5.4,35.2c1.1,7,6.6,12.6,13.7,13.7L613.7,1621.1z"/>
	<path class="st17" d="M474.1,1853l-33,5.1c-6.6,1-11.8,6.2-12.8,12.8l-5.1,33l-5.1-33c-1-6.6-6.2-11.8-12.8-12.8l-33-5.1l33-5.1
		c6.6-1,11.8-6.2,12.8-12.8l5.1-33l5.1,33c1,6.6,6.2,11.8,12.8,12.8L474.1,1853z"/>
	<path class="st17" d="M362.6,1450.6l-24.6,3.8c-4.9,0.8-8.8,4.6-9.6,9.6l-3.8,24.6l-3.8-24.6c-0.8-4.9-4.6-8.8-9.6-9.6l-24.6-3.8
		l24.6-3.8c4.9-0.8,8.8-4.6,9.6-9.6l3.8-24.6l3.8,24.6c0.8,4.9,4.6,8.8,9.6,9.6L362.6,1450.6z"/>
	<path class="st17" d="M2441.3,1529.8l36.1,5.6c7.2,1.1,12.9,6.8,14,14l5.6,36.1l5.6-36.1c1.1-7.2,6.8-12.9,14-14l36.1-5.6
		l-36.1-5.6c-7.2-1.1-12.9-6.8-14-14l-5.6-36.1l-5.6,36.1c-1.1,7.2-6.8,12.9-14,14L2441.3,1529.8z"/>
	<path class="st17" d="M2223.9,1762.3l33.9,5.2c6.8,1.1,12.1,6.4,13.2,13.2l5.2,33.9l5.2-33.9c1.1-6.8,6.4-12.1,13.2-13.2l33.9-5.2
		l-33.9-5.2c-6.8-1.1-12.1-6.4-13.2-13.2l-5.2-33.9l-5.2,33.9c-1,6.8-6.4,12.1-13.2,13.2L2223.9,1762.3z"/>
	<path class="st17" d="M2301.4,1332.9l25.3,3.9c5.1,0.8,9,4.8,9.8,9.8l3.9,25.3l3.9-25.3c0.8-5.1,4.8-9,9.8-9.8l25.3-3.9l-25.3-3.9
		c-5.1-0.8-9-4.8-9.8-9.8l-3.9-25.3l-3.9,25.3c-0.8,5.1-4.8,9-9.8,9.8L2301.4,1332.9z"/>
	<path class="st17" d="M747.9,643.4l-27.6,4.3c-5.5,0.9-9.8,5.2-10.7,10.7l-4.3,27.6l-4.3-27.6c-0.9-5.5-5.2-9.8-10.7-10.7
		l-27.6-4.3l27.6-4.3c5.5-0.9,9.9-5.2,10.7-10.7l4.3-27.6l4.3,27.6c0.9,5.5,5.2,9.8,10.7,10.7L747.9,643.4z"/>
	<path class="st17" d="M551.6,865.2l-28.6,4.4c-5.7,0.9-10.2,5.4-11.1,11.1l-4.4,28.6l-4.4-28.6c-0.9-5.7-5.4-10.2-11.1-11.1
		l-28.6-4.4l28.6-4.4c5.7-0.9,10.2-5.4,11.1-11.1l4.4-28.6l4.4,28.6c0.9,5.7,5.4,10.2,11.1,11.1L551.6,865.2z"/>
	<path class="st17" d="M1843.4,473.4l27.6,4.3c5.5,0.9,9.8,5.2,10.7,10.7l4.3,27.6l4.3-27.6c0.9-5.5,5.2-9.8,10.7-10.7l27.6-4.3
		l-27.6-4.3c-5.5-0.8-9.9-5.2-10.7-10.7l-4.3-27.6l-4.3,27.6c-0.9,5.5-5.2,9.8-10.7,10.7L1843.4,473.4z"/>
</g>
</svg>
