<?xml version="1.0" encoding="utf-8"?>
<!-- Generator: Adobe Illustrator 23.0.0, SVG Export Plug-In . SVG Version: 6.00 Build 0)  -->
<svg version="1.1" id="Computer" xmlns="http://www.w3.org/2000/svg" xmlnsXlink="http://www.w3.org/1999/xlink" x="0px" y="0px"
	 viewBox="0 0 480.4 360.3" style="enable-background:new 0 0 480.4 360.3;" xmlSpace="preserve">
<style type="text/css">
	.st0{fill:url(#SVGID_1_);}
	.st1{fill:url(#SVGID_2_);}
	.st2{fill:url(#SVGID_3_);}
	.st3{fill:url(#SVGID_4_);}
	.st4{fill:url(#SVGID_5_);}
	.st5{opacity:0.6;fill:#020230;enable-background:new    ;}
	.st6{fill:url(#SVGID_6_);}
	.st7{fill:url(#SVGID_7_);}
	.st8{fill:url(#SVGID_8_);}
	.st9{fill:#FFFFFF;}
	.st10{opacity:0.4;}
	.st11{fill:#06033E;}
	.st12{fill:url(#SVGID_9_);}
	.st13{fill:url(#SVGID_10_);}
	.st14{opacity:0.4;fill:#06033E;enable-background:new    ;}
	.st15{opacity:0.5;fill:#06033E;enable-background:new    ;}
	.st16{fill:url(#SVGID_11_);}
	.st17{opacity:0.5;}
	.st18{fill:#E8975B;}
	.st19{fill:#F8359E;}
	.st20{fill:url(#SVGID_12_);}
	.st21{fill:url(#SVGID_13_);}
	.st22{fill:url(#SVGID_14_);}
	.st23{fill:url(#SVGID_15_);}
	.st24{fill:url(#SVGID_16_);}
	.st25{fill:url(#SVGID_17_);}
	.st26{fill:#0C0A78;}
	.st27{fill:url(#SVGID_18_);}
	.st28{opacity:0.5;fill:#FFFFFF;enable-background:new    ;}
</style>
<g>
	<title>computer</title>
	<g id="squares">
		
			<linearGradient id="SVGID_1_" gradientUnits="userSpaceOnUse" x1="427.9326" y1="2103.689" x2="460.5534" y2="2103.689" gradientTransform="matrix(1 0 0 1 0 -1817.8265)">
			<stop  offset="0" style="stop-color:#E39A65"/>
			<stop  offset="1" style="stop-color:#E95F8D"/>
		</linearGradient>
		<path class="st0" d="M444.3,295.5c-1.2,0-2.4-0.3-3.5-0.9l-11.7-6.8c-1-0.6-1.4-1.9-0.8-3c0.2-0.3,0.5-0.6,0.8-0.8l11.7-6.8
			c2.2-1.3,4.8-1.3,7,0l11.7,6.7c1,0.6,1.4,1.9,0.8,3c-0.2,0.3-0.5,0.6-0.8,0.8l-11.7,6.8C446.7,295.2,445.5,295.5,444.3,295.5z
			 M444.3,278.2c-0.9,0-1.8,0.2-2.5,0.7l-11.7,6.8c-0.1,0.1-0.2,0.2-0.2,0.3c0,0.1,0.1,0.2,0.2,0.3l11.7,6.8l0,0
			c1.6,0.9,3.5,0.9,5.1,0l11.7-6.8c0.1-0.1,0.2-0.2,0.2-0.3c0-0.1-0.1-0.2-0.2-0.3l-11.7-6.8C446,278.4,445.2,278.2,444.3,278.2z"/>
		
			<linearGradient id="SVGID_2_" gradientUnits="userSpaceOnUse" x1="383.2901" y1="2058.9819" x2="438.0865" y2="2058.9819" gradientTransform="matrix(1 0 0 1 0 -1817.8265)">
			<stop  offset="0" style="stop-color:#E39A65"/>
			<stop  offset="1" style="stop-color:#E95F8D"/>
		</linearGradient>
		<path class="st1" d="M410.7,257c-2,0-3.9-0.5-5.7-1.5l-20.2-11.7c-1.5-0.9-2-2.7-1.1-4.2c0.3-0.5,0.6-0.8,1.1-1.1l20.2-11.7
			c3.5-2,7.8-2,11.3,0l20.2,11.7c1.5,0.8,2,2.7,1.1,4.2c-0.3,0.5-0.7,0.9-1.1,1.1l-20.2,11.7C414.6,256.5,412.7,257.1,410.7,257z
			 M406,253.9c2.9,1.7,6.5,1.7,9.5,0l20.2-11.7c0.4-0.2,0.6-0.6,0.6-1s-0.2-0.8-0.6-1l-20.2-11.7c-2.9-1.7-6.5-1.7-9.5,0l-20.2,11.7
			c-0.4,0.2-0.6,0.6-0.6,1s0.2,0.8,0.6,1L406,253.9z"/>
		
			<linearGradient id="SVGID_3_" gradientUnits="userSpaceOnUse" x1="22.0297" y1="2077.3765" x2="76.8262" y2="2077.3765" gradientTransform="matrix(1 0 0 1 0 -1817.8265)">
			<stop  offset="0" style="stop-color:#E39A65"/>
			<stop  offset="1" style="stop-color:#E95F8D"/>
		</linearGradient>
		<path class="st2" d="M49.5,275.4c-2,0-3.9-0.5-5.7-1.5l-20.2-11.7c-1.5-0.9-2-2.7-1.1-4.2c0.3-0.5,0.7-0.8,1.1-1.1l20.2-11.7
			c3.5-2,7.8-2,11.3,0l20.2,11.7c1.5,0.9,2,2.7,1.1,4.2c-0.3,0.5-0.7,0.8-1.1,1.1l-20.2,11.7C53.4,274.9,51.5,275.4,49.5,275.4z
			 M49.5,245.6c-1.7,0-3.3,0.4-4.7,1.3l-20.2,11.7c-0.4,0.2-0.6,0.6-0.6,1s0.2,0.8,0.6,1l20.2,11.7l0,0c2.9,1.7,6.5,1.7,9.4,0
			l20.2-11.7c0.4-0.2,0.6-0.6,0.6-1s-0.2-0.8-0.6-1l-20.2-11.7C52.8,246,51.1,245.6,49.5,245.6L49.5,245.6z"/>
		
			<linearGradient id="SVGID_4_" gradientUnits="userSpaceOnUse" x1="85.8779" y1="2073.8396" x2="378.178" y2="2073.8396" gradientTransform="matrix(1 0 0 1 0 -1817.8265)">
			<stop  offset="0" style="stop-color:#E39A65"/>
			<stop  offset="1" style="stop-color:#E95F8D"/>
		</linearGradient>
		<path class="st3" d="M257.3,341.3c-1.6,0-3.1-0.3-4.5-1.1l0,0L88,245c-1.2-0.6-2-1.8-2.1-3.1c0-1.5,1-2.9,2.8-3.9l112.4-65.8
			c3.1-1.8,7.6-2,10.3-0.4L376.1,267c1.2,0.6,2,1.8,2.1,3.2c0,1.4-1,2.9-2.8,3.9L263,340C261.3,340.8,259.3,341.4,257.3,341.3z
			 M206.8,172.7c-1.7,0-3.4,0.4-4.9,1.2L89.5,239.7c-1.2,0.7-1.8,1.5-1.8,2.3c0.1,0.7,0.5,1.3,1.2,1.5l164.8,95.2l0,0
			c2.1,1.2,6,1,8.4-0.4l112.4-65.8c1.1-0.7,1.8-1.5,1.8-2.3c-0.1-0.7-0.5-1.3-1.2-1.5l-164.8-95.2
			C209.3,172.9,208,172.6,206.8,172.7z"/>
		
			<linearGradient id="SVGID_5_" gradientUnits="userSpaceOnUse" x1="90.3297" y1="1987.0765" x2="167.1007" y2="1987.0765" gradientTransform="matrix(1 0 0 1 0 -1817.8265)">
			<stop  offset="0" style="stop-color:#E39A65"/>
			<stop  offset="1" style="stop-color:#E95F8D"/>
		</linearGradient>
		<path class="st4" d="M128.7,191.3c-2.7,0-5.4-0.7-7.8-2.1l0,0l-28.6-16.5c-1.9-1.1-2.5-3.6-1.4-5.5c0.3-0.6,0.8-1,1.4-1.4
			l28.6-16.5c4.8-2.8,10.8-2.8,15.6,0l28.6,16.5c1.9,1.1,2.6,3.5,1.5,5.4c-0.4,0.6-0.9,1.1-1.5,1.5l-28.6,16.5
			C134.1,190.6,131.4,191.3,128.7,191.3z M121.8,187.6c4.3,2.4,9.5,2.4,13.8,0l28.6-16.5c1-0.6,1.4-1.8,0.8-2.9
			c-0.2-0.3-0.5-0.6-0.8-0.8L135.6,151c-4.3-2.5-9.5-2.5-13.8,0l-28.6,16.5c-1,0.6-1.4,1.8-0.8,2.9c0.2,0.3,0.5,0.6,0.8,0.8
			L121.8,187.6z"/>
	</g>
	<g id="computer">
		<path class="st5" d="M254,326.3l-144.4-83.4c-2.1-1.2-1.8-3.3,0.6-4.7l92.7-53.5c2.4-1.4,6.1-1.6,8.2-0.3l144.4,83.4
			c2.1,1.2,1.8,3.3-0.6,4.7L262.2,326C259.8,327.3,256.1,327.5,254,326.3z"/>
		
			<radialGradient id="SVGID_6_" cx="247.328" cy="1857.4365" r="223.3" gradientTransform="matrix(1 0 0 1 0 -1817.8265)" gradientUnits="userSpaceOnUse">
			<stop  offset="0" style="stop-color:#E39A65"/>
			<stop  offset="0.47" style="stop-color:#A92FFB"/>
			<stop  offset="0.59" style="stop-color:#891CFB"/>
			<stop  offset="0.74" style="stop-color:#6507FA"/>
			<stop  offset="0.8" style="stop-color:#0D0C6F"/>
		</radialGradient>
		<path class="st6" d="M393.9,127.9L250,44.8c-0.9-0.5-1.9-0.7-2.9-0.4l0,0l-2.7,0.9l0.9,0.2c-0.4,0.5-0.7,1-0.9,1.6l-32.5,105.7
			c-0.8,2.7,0.3,5.6,2.6,7.1L358.4,243c0.3,0.2,0.7,0.3,1.1,0.4l-0.4,0.8l2.5-0.9l0,0c1.1-0.5,2-1.5,2.3-2.7L396.5,135
			C397.3,132.3,396.2,129.4,393.9,127.9z"/>
		
			<radialGradient id="SVGID_7_" cx="110.7479" cy="2036.7566" r="244.17" gradientTransform="matrix(1 0 0 1 0 -1817.8265)" gradientUnits="userSpaceOnUse">
			<stop  offset="0" style="stop-color:#E39A65"/>
			<stop  offset="0.47" style="stop-color:#A92FFB"/>
			<stop  offset="0.57" style="stop-color:#891CFB"/>
			<stop  offset="0.68" style="stop-color:#6507FA"/>
			<stop  offset="0.74" style="stop-color:#0D0C6F"/>
		</radialGradient>
		<path class="st7" d="M353.3,246.9L353.3,246.9L211.2,165c-2.1-1.2-5.7-1.1-8.1,0.3l-91.8,53l-3.1-1.2l0.9,4.3l0,0
			c0.2,0.8,0.7,1.4,1.4,1.7L253.9,306c2.1,1.2,5.7,1,8.1-0.3l92.1-53.1c0.9-0.4,1.6-1.3,2-2.3l0,0l0.8-4.3L353.3,246.9z"/>
		
			<radialGradient id="SVGID_8_" cx="133.208" cy="1987.7466" r="218.96" gradientTransform="matrix(1 0 0 1 0 -1817.8265)" gradientUnits="userSpaceOnUse">
			<stop  offset="0" style="stop-color:#E39A65"/>
			<stop  offset="0.47" style="stop-color:#A92FFB"/>
			<stop  offset="0.59" style="stop-color:#891CFB"/>
			<stop  offset="0.73" style="stop-color:#6507FA"/>
			<stop  offset="1" style="stop-color:#3919BB"/>
		</radialGradient>
		<path class="st8" d="M254,302.2l-144.4-83.4c-2.1-1.2-1.8-3.3,0.6-4.7l92.7-53.5c2.4-1.4,6.1-1.6,8.2-0.3l144.4,83.4
			c2.1,1.2,1.8,3.3-0.6,4.7l-92.7,53.5C259.8,303.2,256.1,303.4,254,302.2z"/>
		<path class="st9" d="M354.9,247.2l-92.7,53.5c-2.4,1.4-6.1,1.5-8.2,0.3l-144.4-83.4c-0.6-0.3-1.1-0.9-1.3-1.5
			c-0.3,1.1,0.3,2.2,1.3,2.6L254,302.1c2.1,1.2,5.8,1.1,8.2-0.3l92.7-53.5c1.6-0.9,2.2-2.2,1.9-3.2
			C356.5,246,355.8,246.8,354.9,247.2z"/>
		<g class="st10">
			<path class="st11" d="M178.5,205.2l-4.9-2.8c-0.4-0.2-0.4-0.6,0.1-0.9l5.8-3.3c0.5-0.3,1-0.3,1.5-0.1l4.9,2.8
				c0.4,0.2,0.4,0.6-0.1,0.9l-5.8,3.3C179.6,205.5,179,205.5,178.5,205.2z"/>
			<path class="st11" d="M186,209.6l-4.9-2.8c-0.4-0.2-0.4-0.6,0.1-0.9l5.8-3.3c0.5-0.3,1-0.3,1.5-0.1l4.9,2.8
				c0.4,0.2,0.4,0.6-0.1,0.9l-5.8,3.3C187.1,209.8,186.5,209.8,186,209.6z"/>
			<path class="st11" d="M193.5,214l-4.9-2.8c-0.4-0.2-0.4-0.6,0.1-0.9l5.8-3.3c0.5-0.3,1-0.3,1.5-0.1l4.9,2.8
				c0.4,0.2,0.4,0.6-0.1,0.9l-5.8,3.3C194.6,214.2,194,214.2,193.5,214z"/>
			<path class="st11" d="M204,210.4l-4.9-2.8c-0.4-0.2-0.3-0.6,0.1-0.9l4.8-2.8c0.5-0.3,1-0.3,1.5-0.1l4.9,2.8
				c0.4,0.2,0.3,0.6-0.1,0.9l-4.8,2.8C205,210.5,204.4,210.6,204,210.4z"/>
			<path class="st11" d="M211.5,214.7l-4.9-2.8c-0.4-0.2-0.3-0.6,0.1-0.9l4.8-2.8c0.5-0.3,1-0.3,1.5-0.1l4.9,2.8
				c0.4,0.2,0.3,0.6-0.1,0.9l-4.8,2.8C212.5,214.9,212,214.9,211.5,214.7z"/>
			<path class="st11" d="M219,219l-4.9-2.8c-0.4-0.2-0.3-0.6,0.1-0.9l4.8-2.8c0.5-0.3,1-0.3,1.5-0.1l4.9,2.8
				c0.4,0.2,0.3,0.6-0.1,0.9l-4.8,2.8C220.1,219.3,219.5,219.3,219,219z"/>
			<path class="st11" d="M226.5,223.4l-4.9-2.8c-0.4-0.2-0.3-0.6,0.1-0.9l4.8-2.8c0.5-0.3,1-0.3,1.5-0.1l4.9,2.8
				c0.4,0.2,0.3,0.6-0.1,0.9l-4.8,2.8C227.6,223.6,227,223.6,226.5,223.4z"/>
			<path class="st11" d="M234.1,227.7l-4.9-2.8c-0.4-0.2-0.3-0.6,0.1-0.9l4.8-2.8c0.5-0.3,1-0.3,1.5-0.1l4.9,2.8
				c0.4,0.2,0.3,0.6-0.1,0.9l-4.8,2.8C235.1,227.9,234.6,228,234.1,227.7z"/>
			<path class="st11" d="M241.6,232.1l-4.9-2.8c-0.4-0.2-0.3-0.6,0.1-0.9l4.8-2.8c0.5-0.3,1-0.3,1.5-0.1l4.9,2.8
				c0.4,0.2,0.3,0.6-0.1,0.9l-4.8,2.8C242.7,232.3,242.1,232.3,241.6,232.1z"/>
			<path class="st11" d="M249.1,236.4l-4.9-2.8c-0.4-0.2-0.3-0.6,0.1-0.9l4.8-2.7c0.5-0.3,1-0.3,1.5-0.1l4.9,2.8
				c0.4,0.2,0.3,0.6-0.1,0.9l-4.8,2.8C250.2,236.7,249.6,236.7,249.1,236.4z"/>
			<path class="st11" d="M256.7,240.8l-4.9-2.8c-0.4-0.2-0.3-0.6,0.1-0.9l4.8-2.8c0.5-0.3,1-0.3,1.5-0.1l4.9,2.8
				c0.4,0.2,0.3,0.6-0.1,0.9l-4.8,2.8C257.7,241,257.2,241,256.7,240.8z"/>
			<path class="st11" d="M264.2,245.1l-4.9-2.8c-0.4-0.2-0.3-0.6,0.1-0.9l4.8-2.8c0.5-0.3,1-0.3,1.5-0.1l4.9,2.8
				c0.4,0.2,0.3,0.6-0.1,0.9l-4.8,2.8C265.3,245.3,264.7,245.4,264.2,245.1z"/>
			<path class="st11" d="M271.7,249.5l-4.8-2.8c-0.4-0.2-0.3-0.6,0.1-0.9l4.8-2.8c0.5-0.3,1-0.3,1.5-0.1l4.9,2.8
				c0.4,0.2,0.3,0.6-0.1,0.9l-4.8,2.8C272.8,249.7,272.2,249.7,271.7,249.5z"/>
			<path class="st11" d="M215,208.3l-4.9-2.8c-0.4-0.2-0.4-0.6,0.1-0.9l4.8-2.8c0.5-0.3,1-0.3,1.5-0.1l4.9,2.8
				c0.4,0.2,0.3,0.6-0.1,0.9l-4.8,2.8C216.1,208.5,215.5,208.5,215,208.3z"/>
			<path class="st11" d="M207.4,203.9l-4.9-2.8c-0.4-0.2-0.3-0.6,0.1-0.9l4.8-2.8c0.5-0.3,1-0.3,1.5-0.1l4.9,2.8
				c0.4,0.2,0.3,0.6-0.1,0.9l-4.9,2.8C208.4,204.1,207.9,204.1,207.4,203.9z"/>
			<path class="st11" d="M199.8,199.5l-10.5-6.1c-0.4-0.2-0.3-0.6,0.1-0.9l4.8-2.8c0.5-0.3,1-0.3,1.5-0.1l10.5,6.1
				c0.4,0.2,0.4,0.6-0.1,0.9l-4.8,2.8C200.8,199.7,200.2,199.7,199.8,199.5z"/>
			<path class="st11" d="M205.1,194.1l-8.5-4.9c-0.4-0.2-0.3-0.6,0.1-0.9l4.8-2.8c0.5-0.3,1-0.3,1.5-0.1l8.5,4.9
				c0.4,0.2,0.4,0.6-0.1,0.9l-4.8,2.8C206.2,194.3,205.6,194.3,205.1,194.1z"/>
			<path class="st11" d="M222.6,212.6l-4.9-2.8c-0.4-0.2-0.4-0.6,0.1-0.9l4.8-2.8c0.5-0.3,1-0.3,1.5-0.1l4.9,2.8
				c0.4,0.2,0.3,0.6-0.1,0.9l-4.8,2.8C223.6,212.8,223.1,212.9,222.6,212.6z"/>
			<path class="st11" d="M230.1,217l-4.9-2.8c-0.4-0.2-0.4-0.6,0.1-0.9l4.8-2.8c0.5-0.3,1-0.3,1.5-0.1l4.9,2.8
				c0.4,0.2,0.3,0.6-0.1,0.9l-4.8,2.8C231.2,217.2,230.6,217.2,230.1,217z"/>
			<path class="st11" d="M237.6,221.3l-4.9-2.8c-0.4-0.2-0.4-0.6,0.1-0.9l4.8-2.8c0.5-0.3,1-0.3,1.5-0.1l4.9,2.8
				c0.4,0.2,0.3,0.6-0.1,0.9l-4.8,2.8C238.7,221.5,238.1,221.6,237.6,221.3z"/>
			<path class="st11" d="M245.2,225.7l-4.9-2.8c-0.4-0.2-0.4-0.6,0.1-0.9l4.8-2.8c0.5-0.3,1-0.3,1.5-0.1l4.9,2.8
				c0.4,0.2,0.3,0.6-0.1,0.9l-4.8,2.8C246.2,225.9,245.7,225.9,245.2,225.7z"/>
			<path class="st11" d="M252.7,230l-4.9-2.8c-0.4-0.2-0.4-0.6,0.1-0.9l4.8-2.8c0.5-0.3,1-0.3,1.5-0.1l4.9,2.8
				c0.4,0.2,0.3,0.6-0.1,0.9l-4.8,2.9C253.7,230.2,253.2,230.2,252.7,230z"/>
			<path class="st11" d="M260.2,234.4l-4.9-2.8c-0.4-0.2-0.4-0.6,0.1-0.9l4.8-2.8c0.5-0.3,1-0.3,1.5-0.1l4.9,2.8
				c0.4,0.2,0.3,0.6-0.1,0.9l-4.8,2.8C261.3,234.6,260.7,234.6,260.2,234.4z"/>
			<path class="st11" d="M267.8,238.7l-4.9-2.8c-0.4-0.2-0.3-0.6,0.1-0.9l4.8-2.8c0.5-0.3,1-0.3,1.5-0.1l4.9,2.8
				c0.4,0.2,0.3,0.6-0.1,0.9l-4.8,2.8C268.8,238.9,268.3,239,267.8,238.7z"/>
			<path class="st11" d="M275.3,243.1l-4.9-2.8c-0.4-0.2-0.3-0.6,0.1-0.9l4.8-2.8c0.5-0.3,1-0.3,1.5-0.1l4.9,2.8
				c0.4,0.2,0.4,0.6-0.1,0.9l-4.8,2.8C276.4,243.3,275.8,243.3,275.3,243.1z"/>
			<path class="st11" d="M282.8,247.4l-4.9-2.8c-0.4-0.2-0.3-0.6,0.1-0.9l4.8-2.8c0.5-0.3,1-0.3,1.5-0.1l4.9,2.8
				c0.4,0.2,0.4,0.6-0.1,0.9l-4.8,2.8C283.9,247.6,283.3,247.6,282.8,247.4z"/>
			<path class="st11" d="M296.2,255.2l-10.6-6.2c-0.4-0.2-0.3-0.6,0.1-0.9l4.8-2.8c0.5-0.3,1-0.3,1.5-0.1l10.6,6.1
				c0.4,0.2,0.3,0.6-0.1,0.9l-4.8,2.8C297.3,255.3,296.7,255.4,296.2,255.2z"/>
			<path class="st11" d="M310.9,246.7l-9-5.2c-0.4-0.2-0.3-0.6,0.1-0.9l4.8-2.8c0.5-0.3,1-0.3,1.5-0.1l9,5.2
				c0.4,0.2,0.3,0.6-0.1,0.9l-4.8,2.8C312,246.9,311.4,246.9,310.9,246.7z"/>
			<path class="st11" d="M235.8,211.8l-4.9-2.8c-0.4-0.2-0.3-0.6,0.1-0.9l4.8-2.8c0.5-0.3,1-0.3,1.5-0.1l4.9,2.8
				c0.4,0.2,0.3,0.6-0.1,0.9l-4.8,2.8C236.8,212,236.3,212,235.8,211.8z"/>
			<path class="st11" d="M228,207.3l-4.9-2.8c-0.4-0.2-0.4-0.6,0.1-0.9l4.8-2.8c0.5-0.3,1-0.3,1.5-0.1l4.9,2.8
				c0.4,0.2,0.3,0.6-0.1,0.9l-4.8,2.8C229.1,207.5,228.5,207.6,228,207.3z"/>
			<path class="st11" d="M220.3,202.9l-4.9-2.8c-0.4-0.2-0.3-0.6,0.1-0.9l4.8-2.8c0.5-0.3,1-0.3,1.5-0.1l4.9,2.8
				c0.4,0.2,0.4,0.6-0.1,0.9l-4.8,2.8C221.4,203.1,220.8,203.1,220.3,202.9z"/>
			<path class="st11" d="M212.6,198.4l-4.9-2.8c-0.4-0.2-0.3-0.6,0.1-0.9l4.8-2.8c0.5-0.3,1-0.3,1.5-0.1l4.9,2.8
				c0.4,0.2,0.3,0.6-0.1,0.9l-4.8,2.8C213.7,198.6,213.1,198.7,212.6,198.4z"/>
			<path class="st11" d="M243.3,216.1l-4.9-2.8c-0.4-0.2-0.3-0.6,0.1-0.9l4.8-2.8c0.5-0.3,1-0.3,1.5-0.1l4.9,2.8
				c0.4,0.2,0.3,0.6-0.1,0.9l-4.8,2.8C244.4,216.3,243.8,216.4,243.3,216.1z"/>
			<path class="st11" d="M250.8,220.5l-4.9-2.8c-0.4-0.2-0.3-0.6,0.1-0.9l4.8-2.8c0.5-0.3,1-0.3,1.5-0.1l4.9,2.8
				c0.4,0.2,0.3,0.6-0.1,0.9l-4.8,2.8C251.9,220.7,251.3,220.7,250.8,220.5z"/>
			<path class="st11" d="M258.4,224.8l-4.9-2.8c-0.4-0.2-0.3-0.6,0.1-0.9l4.8-2.8c0.5-0.3,1-0.3,1.5-0.1l4.9,2.8
				c0.4,0.2,0.3,0.6-0.1,0.9l-4.8,2.8C259.4,225,258.9,225.1,258.4,224.8z"/>
			<path class="st11" d="M265.9,229.2l-4.9-2.8c-0.4-0.2-0.3-0.6,0.1-0.9l4.8-2.8c0.5-0.3,1-0.3,1.5-0.1l4.9,2.8
				c0.4,0.2,0.3,0.6-0.1,0.9l-4.8,2.8C267,229.4,266.4,229.4,265.9,229.2z"/>
			<path class="st11" d="M273.4,233.5l-4.9-2.8c-0.4-0.2-0.3-0.6,0.1-0.9l4.8-2.8c0.5-0.3,1-0.3,1.5-0.1l4.9,2.8
				c0.4,0.2,0.3,0.6-0.1,0.9l-4.8,2.8C274.5,233.7,273.9,233.8,273.4,233.5z"/>
			<path class="st11" d="M280.9,237.9l-4.9-2.8c-0.4-0.2-0.3-0.6,0.1-0.9l4.8-2.8c0.5-0.3,1-0.3,1.5-0.1l4.9,2.8
				c0.4,0.2,0.3,0.6-0.1,0.9l-4.8,2.8C282,238.1,281.4,238.1,280.9,237.9z"/>
			<path class="st11" d="M288.5,242.2l-4.9-2.8c-0.4-0.2-0.3-0.6,0.1-0.9l4.8-2.8c0.5-0.3,1-0.3,1.5-0.1l4.9,2.8
				c0.4,0.2,0.3,0.6-0.1,0.9l-4.8,2.8C289.5,242.4,289,242.5,288.5,242.2z"/>
			<path class="st11" d="M296,246.6l-4.9-2.8c-0.4-0.2-0.4-0.6,0.1-0.9l4.8-2.8c0.5-0.3,1-0.3,1.5-0.1l4.9,2.8
				c0.4,0.2,0.3,0.6-0.1,0.9l-4.8,2.8C297.1,246.8,296.5,246.8,296,246.6z"/>
			<path class="st11" d="M303.5,250.9l-4.9-2.8c-0.4-0.2-0.4-0.6,0.1-0.9l4.8-2.8c0.5-0.3,1-0.3,1.5-0.1l4.9,2.8
				c0.4,0.2,0.3,0.6-0.1,0.9l-4.8,2.8C304.6,251.1,304,251.1,303.5,250.9z"/>
			<path class="st11" d="M231.8,201l-4.9-2.8c-0.4-0.2-0.3-0.6,0.1-0.9l4.8-2.8c0.5-0.3,1-0.3,1.5-0.1l4.9,2.8
				c0.4,0.2,0.4,0.6-0.1,0.9l-4.8,2.8C232.8,201.2,232.3,201.2,231.8,201z"/>
			<path class="st11" d="M224.3,196.7l-4.9-2.8c-0.4-0.2-0.4-0.6,0.1-0.9l4.8-2.8c0.5-0.3,1-0.3,1.5-0.1l4.9,2.8
				c0.4,0.2,0.3,0.6-0.1,0.9l-4.8,2.8C225.4,196.9,224.8,196.9,224.3,196.7z"/>
			<path class="st11" d="M216.8,192.4l-4.9-2.8c-0.4-0.2-0.3-0.6,0.1-0.9l4.9-2.8c0.5-0.3,1-0.3,1.5-0.1l4.9,2.8
				c0.4,0.2,0.3,0.6-0.1,0.9l-4.8,2.8C217.9,192.6,217.3,192.6,216.8,192.4z"/>
			<path class="st11" d="M209.3,188.1l-4.9-2.8c-0.4-0.2-0.3-0.6,0.1-0.9l4.8-2.8c0.5-0.3,1-0.3,1.5-0.1l4.9,2.8
				c0.4,0.2,0.4,0.6-0.1,0.9l-4.7,2.8C210.4,188.3,209.8,188.3,209.3,188.1z"/>
			<path class="st11" d="M217,183.6l-4.9-2.8c-0.4-0.2-0.3-0.6,0.1-0.9l1.6-0.9c0.5-0.3,1-0.3,1.5-0.1l4.9,2.8
				c0.4,0.2,0.4,0.6-0.1,0.9l-1.6,0.9C218.1,183.8,217.5,183.8,217,183.6z"/>
			<path class="st11" d="M226.8,189.3l-4.9-2.8c-0.4-0.2-0.3-0.6,0.1-0.9l1.6-0.9c0.5-0.3,1-0.3,1.5-0.1l4.9,2.8
				c0.4,0.2,0.4,0.6-0.1,0.9l-1.6,0.9C227.8,189.5,227.3,189.5,226.8,189.3z"/>
			<path class="st11" d="M234.3,193.6l-4.9-2.8c-0.4-0.2-0.3-0.6,0.1-0.9l1.6-0.9c0.5-0.3,1-0.3,1.5-0.1l4.9,2.8
				c0.4,0.2,0.4,0.6-0.1,0.9l-1.6,0.9C235.3,193.8,234.8,193.8,234.3,193.6z"/>
			<path class="st11" d="M241.7,197.9l-4.8-2.8c-0.4-0.2-0.4-0.6,0.1-0.9l1.6-0.9c0.5-0.3,1-0.3,1.5-0.1l4.9,2.8
				c0.4,0.2,0.3,0.6-0.1,0.9l-1.6,0.9C242.8,198.1,242.2,198.1,241.7,197.9z"/>
			<path class="st11" d="M249.2,202.2l-4.9-2.8c-0.4-0.2-0.4-0.6,0.1-0.9l1.6-0.9c0.5-0.3,1-0.3,1.5-0.1l4.9,2.8
				c0.4,0.2,0.3,0.6-0.1,0.9l-1.6,0.9C250.2,202.4,249.7,202.4,249.2,202.2z"/>
			<path class="st11" d="M290.9,226.2l-4.9-2.8c-0.4-0.2-0.3-0.6,0.1-0.9l1.6-0.9c0.5-0.3,1-0.3,1.5-0.1l4.9,2.8
				c0.4,0.2,0.4,0.6-0.1,0.9l-1.6,0.9C292,226.4,291.4,226.5,290.9,226.2z"/>
			<path class="st11" d="M298.3,230.5l-4.9-2.8c-0.4-0.2-0.4-0.6,0.1-0.9l1.6-0.9c0.5-0.3,1-0.3,1.5-0.1l4.9,2.8
				c0.4,0.2,0.3,0.6-0.1,0.9l-1.6,0.9C299.4,230.7,298.8,230.8,298.3,230.5z"/>
			<path class="st11" d="M305.8,234.8l-4.9-2.8c-0.4-0.2-0.4-0.6,0.1-0.9l1.6-0.9c0.5-0.3,1-0.3,1.5-0.1l4.9,2.8
				c0.4,0.2,0.3,0.6-0.1,0.9l-1.6,0.9C306.8,235,306.3,235.1,305.8,234.8z"/>
			<path class="st11" d="M313.2,239.2l-4.9-2.8c-0.4-0.2-0.3-0.6,0.1-0.9l1.6-0.9c0.5-0.3,1-0.3,1.5-0.1l4.9,2.8
				c0.4,0.2,0.3,0.6-0.1,0.9l-1.6,0.9C314.3,239.4,313.7,239.4,313.2,239.2z"/>
			<path class="st11" d="M239.3,205.4l-4.9-2.8c-0.4-0.2-0.3-0.6,0.1-0.9l4.8-2.8c0.5-0.3,1-0.3,1.5-0.1l4.9,2.8
				c0.4,0.2,0.4,0.6-0.1,0.9l-4.8,2.8C240.4,205.6,239.8,205.6,239.3,205.4z"/>
			<path class="st11" d="M246.9,209.7l-4.9-2.8c-0.4-0.2-0.3-0.6,0.1-0.9l4.8-2.8c0.5-0.3,1-0.3,1.5-0.1l4.9,2.8
				c0.4,0.2,0.4,0.6-0.1,0.9l-4.8,2.8C248,209.9,247.4,210,246.9,209.7z"/>
			<path class="st11" d="M254.4,214.1l-4.9-2.8c-0.4-0.2-0.3-0.6,0.1-0.9l4.8-2.8c0.5-0.3,1-0.3,1.5-0.1l4.9,2.8
				c0.4,0.2,0.4,0.6-0.1,0.9l-4.8,2.8C255.4,214.3,254.9,214.3,254.4,214.1z"/>
			<path class="st11" d="M261.9,218.4l-4.9-2.8c-0.4-0.2-0.3-0.6,0.1-0.9l4.8-2.8c0.5-0.3,1-0.3,1.5-0.1l4.9,2.8
				c0.4,0.2,0.4,0.6-0.1,0.9l-4.8,2.8C263,218.6,262.4,218.7,261.9,218.4z"/>
			<path class="st11" d="M269.5,222.8l-4.9-2.8c-0.4-0.2-0.3-0.6,0.1-0.9l4.8-2.8c0.5-0.3,1-0.3,1.5-0.1l4.9,2.7
				c0.4,0.2,0.4,0.6-0.1,0.9l-4.8,2.8C270.5,222.9,269.9,223,269.5,222.8z"/>
			<path class="st11" d="M277,227.1l-4.9-2.8c-0.4-0.2-0.3-0.6,0.1-0.9l4.8-2.8c0.5-0.3,1-0.3,1.5-0.1l4.9,2.8
				c0.4,0.2,0.4,0.6-0.1,0.9l-4.8,2.8C278,227.3,277.5,227.3,277,227.1z"/>
			<path class="st11" d="M284.5,231.5l-4.9-2.8c-0.4-0.2-0.3-0.6,0.1-0.9l4.8-2.8c0.5-0.3,1-0.3,1.5-0.1l4.9,2.8
				c0.4,0.2,0.4,0.6-0.1,0.9l-4.8,2.8C285.6,231.7,285,231.7,284.5,231.5z"/>
			<path class="st11" d="M292,235.8l-4.9-2.8c-0.4-0.2-0.3-0.6,0.1-0.9l4.8-2.8c0.5-0.3,1-0.3,1.5-0.1l4.9,2.8
				c0.4,0.2,0.4,0.6-0.1,0.9l-4.8,2.8C293.1,236,292.5,236,292,235.8z"/>
			<path class="st11" d="M299.6,240.2l-4.9-2.8c-0.4-0.2-0.3-0.6,0.1-0.9l4.8-2.8c0.5-0.3,1-0.3,1.5-0.1l4.9,2.8
				c0.4,0.2,0.3,0.6-0.1,0.9l-4.8,2.8C300.6,240.4,300.1,240.4,299.6,240.2z"/>
			<path class="st11" d="M196.3,205.9l-14.4-8.3c-0.4-0.2-0.3-0.6,0.1-0.9l4.9-2.8c0.5-0.3,1-0.3,1.5-0.1l14.4,8.3
				c0.4,0.2,0.3,0.6-0.1,0.9l-4.8,2.8C197.4,206.2,196.8,206.2,196.3,205.9z"/>
			<path class="st11" d="M288.8,259.3l-14.4-8.3c-0.4-0.2-0.3-0.6,0.1-0.9l4.8-2.8c0.5-0.3,1-0.3,1.5-0.1l14.4,8.3
				c0.4,0.2,0.3,0.6-0.1,0.9l-4.8,2.8C289.8,259.5,289.3,259.6,288.8,259.3z"/>
			<path class="st11" d="M258.7,251.5l-4.9-2.8c-0.4-0.2-0.3-0.6,0.1-0.9l5.8-3.3c0.5-0.3,1-0.3,1.5-0.1l4.9,2.8
				c0.4,0.2,0.3,0.6-0.1,0.9l-5.8,3.3C259.7,251.8,259.2,251.8,258.7,251.5z"/>
			<path class="st11" d="M204,220l-7.8-4.5c-0.4-0.2-0.4-0.6,0.1-0.9l5.8-3.3c0.5-0.3,1-0.3,1.5-0.1l7.8,4.5
				c0.4,0.2,0.3,0.6-0.1,0.9l-5.8,3.3C205,220.2,204.5,220.2,204,220z"/>
			<path class="st11" d="M251.4,247.4l-7.8-4.5c-0.4-0.2-0.4-0.6,0.1-0.9l5.8-3.3c0.5-0.3,1-0.3,1.5-0.1l7.8,4.5
				c0.4,0.2,0.3,0.6-0.1,0.9l-5.8,3.3C252.5,247.6,251.9,247.6,251.4,247.4z"/>
			<path class="st11" d="M214.9,226.2l-7.8-4.5c-0.4-0.2-0.3-0.6,0.1-0.9l5.8-3.3c0.5-0.3,1-0.3,1.5-0.1l7.8,4.5
				c0.4,0.2,0.3,0.6-0.1,0.9l-5.8,3.3C216,226.5,215.4,226.5,214.9,226.2z"/>
			<path class="st11" d="M214.5,217.5l33.9,19.6c0.2,0.1,0.4,0.3,0.3,0.6c0,0.1-0.2,0.3-0.3,0.3l-5.9,3.4c-0.5,0.2-1,0.2-1.5,0
				l-33.9-19.6L214.5,217.5z"/>
			<path class="st11" d="M279.7,259.4l5.4,3.1c0.3,0.2,0.3,0.5-0.1,0.7l-2.4,1.4c-0.4,0.2-0.8,0.2-1.3,0.1l-5.4-3.1
				c-0.3-0.2-0.3-0.5,0.1-0.7l2.4-1.4C278.9,259.3,279.3,259.3,279.7,259.4z"/>
			<path class="st11" d="M272.1,255l5.4,3.1c0.3,0.2,0.3,0.5-0.1,0.7l-2.4,1.4c-0.4,0.2-0.8,0.2-1.3,0l-5.4-3.1
				c-0.3-0.2-0.3-0.5,0.1-0.7l2.4-1.4C271.3,254.9,271.7,254.9,272.1,255z"/>
			<path class="st11" d="M264.6,250.7l5.4,3.1c0.3,0.2,0.3,0.5-0.1,0.7l-2.4,1.4c-0.4,0.2-0.9,0.2-1.3,0l-5.4-3.1
				c-0.3-0.2-0.3-0.5,0.1-0.7l2.4-1.4C263.7,250.5,264.2,250.5,264.6,250.7z"/>
			<path class="st11" d="M276.3,252.6l5.4,3.1c0.3,0.2,0.3,0.5-0.1,0.7l-2.4,1.4c-0.4,0.2-0.8,0.2-1.3,0l-5.4-3.1
				c-0.3-0.2-0.3-0.5,0.1-0.7l2.4-1.4C275.4,252.5,275.9,252.5,276.3,252.6z"/>
		</g>
		<g class="st10">
			<path class="st11" d="M178.5,205.2l-4.9-2.8c-0.4-0.2-0.4-0.6,0.1-0.9l5.8-3.3c0.5-0.3,1-0.3,1.5-0.1l4.9,2.8
				c0.4,0.2,0.4,0.6-0.1,0.9l-5.8,3.3C179.6,205.5,179,205.5,178.5,205.2z"/>
			<path class="st11" d="M186,209.6l-4.9-2.8c-0.4-0.2-0.4-0.6,0.1-0.9l5.8-3.3c0.5-0.3,1-0.3,1.5-0.1l4.9,2.8
				c0.4,0.2,0.4,0.6-0.1,0.9l-5.8,3.3C187.1,209.8,186.5,209.8,186,209.6z"/>
			<path class="st11" d="M193.5,214l-4.9-2.8c-0.4-0.2-0.4-0.6,0.1-0.9l5.8-3.3c0.5-0.3,1-0.3,1.5-0.1l4.9,2.8
				c0.4,0.2,0.4,0.6-0.1,0.9l-5.8,3.3C194.6,214.2,194,214.2,193.5,214z"/>
			<path class="st11" d="M204,210.4l-4.9-2.8c-0.4-0.2-0.3-0.6,0.1-0.9l4.8-2.8c0.5-0.3,1-0.3,1.5-0.1l4.9,2.8
				c0.4,0.2,0.3,0.6-0.1,0.9l-4.8,2.8C205,210.5,204.4,210.6,204,210.4z"/>
			<path class="st11" d="M211.5,214.7l-4.9-2.8c-0.4-0.2-0.3-0.6,0.1-0.9l4.8-2.8c0.5-0.3,1-0.3,1.5-0.1l4.9,2.8
				c0.4,0.2,0.3,0.6-0.1,0.9l-4.8,2.8C212.5,214.9,212,214.9,211.5,214.7z"/>
			<path class="st11" d="M219,219l-4.9-2.8c-0.4-0.2-0.3-0.6,0.1-0.9l4.8-2.8c0.5-0.3,1-0.3,1.5-0.1l4.9,2.8
				c0.4,0.2,0.3,0.6-0.1,0.9l-4.8,2.8C220.1,219.3,219.5,219.3,219,219z"/>
			<path class="st11" d="M226.5,223.4l-4.9-2.8c-0.4-0.2-0.3-0.6,0.1-0.9l4.8-2.8c0.5-0.3,1-0.3,1.5-0.1l4.9,2.8
				c0.4,0.2,0.3,0.6-0.1,0.9l-4.8,2.8C227.6,223.6,227,223.6,226.5,223.4z"/>
			<path class="st11" d="M234.1,227.7l-4.9-2.8c-0.4-0.2-0.3-0.6,0.1-0.9l4.8-2.8c0.5-0.3,1-0.3,1.5-0.1l4.9,2.8
				c0.4,0.2,0.3,0.6-0.1,0.9l-4.8,2.8C235.1,227.9,234.6,228,234.1,227.7z"/>
			<path class="st11" d="M241.6,232.1l-4.9-2.8c-0.4-0.2-0.3-0.6,0.1-0.9l4.8-2.8c0.5-0.3,1-0.3,1.5-0.1l4.9,2.8
				c0.4,0.2,0.3,0.6-0.1,0.9l-4.8,2.8C242.7,232.3,242.1,232.3,241.6,232.1z"/>
			<path class="st11" d="M249.1,236.4l-4.9-2.8c-0.4-0.2-0.3-0.6,0.1-0.9l4.8-2.7c0.5-0.3,1-0.3,1.5-0.1l4.9,2.8
				c0.4,0.2,0.3,0.6-0.1,0.9l-4.8,2.8C250.2,236.7,249.6,236.7,249.1,236.4z"/>
			<path class="st11" d="M256.7,240.8l-4.9-2.8c-0.4-0.2-0.3-0.6,0.1-0.9l4.8-2.8c0.5-0.3,1-0.3,1.5-0.1l4.9,2.8
				c0.4,0.2,0.3,0.6-0.1,0.9l-4.8,2.8C257.7,241,257.2,241,256.7,240.8z"/>
			<path class="st11" d="M264.2,245.1l-4.9-2.8c-0.4-0.2-0.3-0.6,0.1-0.9l4.8-2.8c0.5-0.3,1-0.3,1.5-0.1l4.9,2.8
				c0.4,0.2,0.3,0.6-0.1,0.9l-4.8,2.8C265.3,245.3,264.7,245.4,264.2,245.1z"/>
			<path class="st11" d="M271.7,249.5l-4.8-2.8c-0.4-0.2-0.3-0.6,0.1-0.9l4.8-2.8c0.5-0.3,1-0.3,1.5-0.1l4.9,2.8
				c0.4,0.2,0.3,0.6-0.1,0.9l-4.8,2.8C272.8,249.7,272.2,249.7,271.7,249.5z"/>
			<path class="st11" d="M215,208.3l-4.9-2.8c-0.4-0.2-0.4-0.6,0.1-0.9l4.8-2.8c0.5-0.3,1-0.3,1.5-0.1l4.9,2.8
				c0.4,0.2,0.3,0.6-0.1,0.9l-4.8,2.8C216.1,208.5,215.5,208.5,215,208.3z"/>
			<path class="st11" d="M207.4,203.9l-4.9-2.8c-0.4-0.2-0.3-0.6,0.1-0.9l4.8-2.8c0.5-0.3,1-0.3,1.5-0.1l4.9,2.8
				c0.4,0.2,0.3,0.6-0.1,0.9l-4.9,2.8C208.4,204.1,207.9,204.1,207.4,203.9z"/>
			<path class="st11" d="M199.8,199.5l-10.5-6.1c-0.4-0.2-0.3-0.6,0.1-0.9l4.8-2.8c0.5-0.3,1-0.3,1.5-0.1l10.5,6.1
				c0.4,0.2,0.4,0.6-0.1,0.9l-4.8,2.8C200.8,199.7,200.2,199.7,199.8,199.5z"/>
			<path class="st11" d="M205.1,194.1l-8.5-4.9c-0.4-0.2-0.3-0.6,0.1-0.9l4.8-2.8c0.5-0.3,1-0.3,1.5-0.1l8.5,4.9
				c0.4,0.2,0.4,0.6-0.1,0.9l-4.8,2.8C206.2,194.3,205.6,194.3,205.1,194.1z"/>
			<path class="st11" d="M222.6,212.6l-4.9-2.8c-0.4-0.2-0.4-0.6,0.1-0.9l4.8-2.8c0.5-0.3,1-0.3,1.5-0.1l4.9,2.8
				c0.4,0.2,0.3,0.6-0.1,0.9l-4.8,2.8C223.6,212.8,223.1,212.9,222.6,212.6z"/>
			<path class="st11" d="M230.1,217l-4.9-2.8c-0.4-0.2-0.4-0.6,0.1-0.9l4.8-2.8c0.5-0.3,1-0.3,1.5-0.1l4.9,2.8
				c0.4,0.2,0.3,0.6-0.1,0.9l-4.8,2.8C231.2,217.2,230.6,217.2,230.1,217z"/>
			<path class="st11" d="M237.6,221.3l-4.9-2.8c-0.4-0.2-0.4-0.6,0.1-0.9l4.8-2.8c0.5-0.3,1-0.3,1.5-0.1l4.9,2.8
				c0.4,0.2,0.3,0.6-0.1,0.9l-4.8,2.8C238.7,221.5,238.1,221.6,237.6,221.3z"/>
			<path class="st11" d="M245.2,225.7l-4.9-2.8c-0.4-0.2-0.4-0.6,0.1-0.9l4.8-2.8c0.5-0.3,1-0.3,1.5-0.1l4.9,2.8
				c0.4,0.2,0.3,0.6-0.1,0.9l-4.8,2.8C246.2,225.9,245.7,225.9,245.2,225.7z"/>
			<path class="st11" d="M252.7,230l-4.9-2.8c-0.4-0.2-0.4-0.6,0.1-0.9l4.8-2.8c0.5-0.3,1-0.3,1.5-0.1l4.9,2.8
				c0.4,0.2,0.3,0.6-0.1,0.9l-4.8,2.9C253.7,230.2,253.2,230.2,252.7,230z"/>
			<path class="st11" d="M260.2,234.4l-4.9-2.8c-0.4-0.2-0.4-0.6,0.1-0.9l4.8-2.8c0.5-0.3,1-0.3,1.5-0.1l4.9,2.8
				c0.4,0.2,0.3,0.6-0.1,0.9l-4.8,2.8C261.3,234.6,260.7,234.6,260.2,234.4z"/>
			<path class="st11" d="M267.8,238.7l-4.9-2.8c-0.4-0.2-0.3-0.6,0.1-0.9l4.8-2.8c0.5-0.3,1-0.3,1.5-0.1l4.9,2.8
				c0.4,0.2,0.3,0.6-0.1,0.9l-4.8,2.8C268.8,238.9,268.3,239,267.8,238.7z"/>
			<path class="st11" d="M275.3,243.1l-4.9-2.8c-0.4-0.2-0.3-0.6,0.1-0.9l4.8-2.8c0.5-0.3,1-0.3,1.5-0.1l4.9,2.8
				c0.4,0.2,0.4,0.6-0.1,0.9l-4.8,2.8C276.4,243.3,275.8,243.3,275.3,243.1z"/>
			<path class="st11" d="M282.8,247.4l-4.9-2.8c-0.4-0.2-0.3-0.6,0.1-0.9l4.8-2.8c0.5-0.3,1-0.3,1.5-0.1l4.9,2.8
				c0.4,0.2,0.4,0.6-0.1,0.9l-4.8,2.8C283.9,247.6,283.3,247.6,282.8,247.4z"/>
			<path class="st11" d="M296.2,255.2l-10.6-6.2c-0.4-0.2-0.3-0.6,0.1-0.9l4.8-2.8c0.5-0.3,1-0.3,1.5-0.1l10.6,6.1
				c0.4,0.2,0.3,0.6-0.1,0.9l-4.8,2.8C297.3,255.3,296.7,255.4,296.2,255.2z"/>
			<path class="st11" d="M310.9,246.7l-9-5.2c-0.4-0.2-0.3-0.6,0.1-0.9l4.8-2.8c0.5-0.3,1-0.3,1.5-0.1l9,5.2
				c0.4,0.2,0.3,0.6-0.1,0.9l-4.8,2.8C312,246.9,311.4,246.9,310.9,246.7z"/>
			<path class="st11" d="M235.8,211.8l-4.9-2.8c-0.4-0.2-0.3-0.6,0.1-0.9l4.8-2.8c0.5-0.3,1-0.3,1.5-0.1l4.9,2.8
				c0.4,0.2,0.3,0.6-0.1,0.9l-4.8,2.8C236.8,212,236.3,212,235.8,211.8z"/>
			<path class="st11" d="M228,207.3l-4.9-2.8c-0.4-0.2-0.4-0.6,0.1-0.9l4.8-2.8c0.5-0.3,1-0.3,1.5-0.1l4.9,2.8
				c0.4,0.2,0.3,0.6-0.1,0.9l-4.8,2.8C229.1,207.5,228.5,207.6,228,207.3z"/>
			<path class="st11" d="M220.3,202.9l-4.9-2.8c-0.4-0.2-0.3-0.6,0.1-0.9l4.8-2.8c0.5-0.3,1-0.3,1.5-0.1l4.9,2.8
				c0.4,0.2,0.4,0.6-0.1,0.9l-4.8,2.8C221.4,203.1,220.8,203.1,220.3,202.9z"/>
			<path class="st11" d="M212.6,198.4l-4.9-2.8c-0.4-0.2-0.3-0.6,0.1-0.9l4.8-2.8c0.5-0.3,1-0.3,1.5-0.1l4.9,2.8
				c0.4,0.2,0.3,0.6-0.1,0.9l-4.8,2.8C213.7,198.6,213.1,198.7,212.6,198.4z"/>
			<path class="st11" d="M243.3,216.1l-4.9-2.8c-0.4-0.2-0.3-0.6,0.1-0.9l4.8-2.8c0.5-0.3,1-0.3,1.5-0.1l4.9,2.8
				c0.4,0.2,0.3,0.6-0.1,0.9l-4.8,2.8C244.4,216.3,243.8,216.4,243.3,216.1z"/>
			<path class="st11" d="M250.8,220.5l-4.9-2.8c-0.4-0.2-0.3-0.6,0.1-0.9l4.8-2.8c0.5-0.3,1-0.3,1.5-0.1l4.9,2.8
				c0.4,0.2,0.3,0.6-0.1,0.9l-4.8,2.8C251.9,220.7,251.3,220.7,250.8,220.5z"/>
			<path class="st11" d="M258.4,224.8l-4.9-2.8c-0.4-0.2-0.3-0.6,0.1-0.9l4.8-2.8c0.5-0.3,1-0.3,1.5-0.1l4.9,2.8
				c0.4,0.2,0.3,0.6-0.1,0.9l-4.8,2.8C259.4,225,258.9,225.1,258.4,224.8z"/>
			<path class="st11" d="M265.9,229.2l-4.9-2.8c-0.4-0.2-0.3-0.6,0.1-0.9l4.8-2.8c0.5-0.3,1-0.3,1.5-0.1l4.9,2.8
				c0.4,0.2,0.3,0.6-0.1,0.9l-4.8,2.8C267,229.4,266.4,229.4,265.9,229.2z"/>
			<path class="st11" d="M273.4,233.5l-4.9-2.8c-0.4-0.2-0.3-0.6,0.1-0.9l4.8-2.8c0.5-0.3,1-0.3,1.5-0.1l4.9,2.8
				c0.4,0.2,0.3,0.6-0.1,0.9l-4.8,2.8C274.5,233.7,273.9,233.8,273.4,233.5z"/>
			<path class="st11" d="M280.9,237.9l-4.9-2.8c-0.4-0.2-0.3-0.6,0.1-0.9l4.8-2.8c0.5-0.3,1-0.3,1.5-0.1l4.9,2.8
				c0.4,0.2,0.3,0.6-0.1,0.9l-4.8,2.8C282,238.1,281.4,238.1,280.9,237.9z"/>
			<path class="st11" d="M288.5,242.2l-4.9-2.8c-0.4-0.2-0.3-0.6,0.1-0.9l4.8-2.8c0.5-0.3,1-0.3,1.5-0.1l4.9,2.8
				c0.4,0.2,0.3,0.6-0.1,0.9l-4.8,2.8C289.5,242.4,289,242.5,288.5,242.2z"/>
			<path class="st11" d="M296,246.6l-4.9-2.8c-0.4-0.2-0.4-0.6,0.1-0.9l4.8-2.8c0.5-0.3,1-0.3,1.5-0.1l4.9,2.8
				c0.4,0.2,0.3,0.6-0.1,0.9l-4.8,2.8C297.1,246.8,296.5,246.8,296,246.6z"/>
			<path class="st11" d="M303.5,250.9l-4.9-2.8c-0.4-0.2-0.4-0.6,0.1-0.9l4.8-2.8c0.5-0.3,1-0.3,1.5-0.1l4.9,2.8
				c0.4,0.2,0.3,0.6-0.1,0.9l-4.8,2.8C304.6,251.1,304,251.1,303.5,250.9z"/>
			<path class="st11" d="M231.8,201l-4.9-2.8c-0.4-0.2-0.3-0.6,0.1-0.9l4.8-2.8c0.5-0.3,1-0.3,1.5-0.1l4.9,2.8
				c0.4,0.2,0.4,0.6-0.1,0.9l-4.8,2.8C232.8,201.2,232.3,201.2,231.8,201z"/>
			<path class="st11" d="M224.3,196.7l-4.9-2.8c-0.4-0.2-0.4-0.6,0.1-0.9l4.8-2.8c0.5-0.3,1-0.3,1.5-0.1l4.9,2.8
				c0.4,0.2,0.3,0.6-0.1,0.9l-4.8,2.8C225.4,196.9,224.8,196.9,224.3,196.7z"/>
			<path class="st11" d="M216.8,192.4l-4.9-2.8c-0.4-0.2-0.3-0.6,0.1-0.9l4.9-2.8c0.5-0.3,1-0.3,1.5-0.1l4.9,2.8
				c0.4,0.2,0.3,0.6-0.1,0.9l-4.8,2.8C217.9,192.6,217.3,192.6,216.8,192.4z"/>
			<path class="st11" d="M209.3,188.1l-4.9-2.8c-0.4-0.2-0.3-0.6,0.1-0.9l4.8-2.8c0.5-0.3,1-0.3,1.5-0.1l4.9,2.8
				c0.4,0.2,0.4,0.6-0.1,0.9l-4.7,2.8C210.4,188.3,209.8,188.3,209.3,188.1z"/>
			<path class="st11" d="M217,183.6l-4.9-2.8c-0.4-0.2-0.3-0.6,0.1-0.9l1.6-0.9c0.5-0.3,1-0.3,1.5-0.1l4.9,2.8
				c0.4,0.2,0.4,0.6-0.1,0.9l-1.6,0.9C218.1,183.8,217.5,183.8,217,183.6z"/>
			<path class="st11" d="M226.8,189.3l-4.9-2.8c-0.4-0.2-0.3-0.6,0.1-0.9l1.6-0.9c0.5-0.3,1-0.3,1.5-0.1l4.9,2.8
				c0.4,0.2,0.4,0.6-0.1,0.9l-1.6,0.9C227.8,189.5,227.3,189.5,226.8,189.3z"/>
			<path class="st11" d="M234.3,193.6l-4.9-2.8c-0.4-0.2-0.3-0.6,0.1-0.9l1.6-0.9c0.5-0.3,1-0.3,1.5-0.1l4.9,2.8
				c0.4,0.2,0.4,0.6-0.1,0.9l-1.6,0.9C235.3,193.8,234.8,193.8,234.3,193.6z"/>
			<path class="st11" d="M241.7,197.9l-4.8-2.8c-0.4-0.2-0.4-0.6,0.1-0.9l1.6-0.9c0.5-0.3,1-0.3,1.5-0.1l4.9,2.8
				c0.4,0.2,0.3,0.6-0.1,0.9l-1.6,0.9C242.8,198.1,242.2,198.1,241.7,197.9z"/>
			<path class="st11" d="M249.2,202.2l-4.9-2.8c-0.4-0.2-0.4-0.6,0.1-0.9l1.6-0.9c0.5-0.3,1-0.3,1.5-0.1l4.9,2.8
				c0.4,0.2,0.3,0.6-0.1,0.9l-1.6,0.9C250.2,202.4,249.7,202.4,249.2,202.2z"/>
			<path class="st11" d="M290.9,226.2l-4.9-2.8c-0.4-0.2-0.3-0.6,0.1-0.9l1.6-0.9c0.5-0.3,1-0.3,1.5-0.1l4.9,2.8
				c0.4,0.2,0.4,0.6-0.1,0.9l-1.6,0.9C292,226.4,291.4,226.5,290.9,226.2z"/>
			<path class="st11" d="M298.3,230.5l-4.9-2.8c-0.4-0.2-0.4-0.6,0.1-0.9l1.6-0.9c0.5-0.3,1-0.3,1.5-0.1l4.9,2.8
				c0.4,0.2,0.3,0.6-0.1,0.9l-1.6,0.9C299.4,230.7,298.8,230.8,298.3,230.5z"/>
			<path class="st11" d="M305.8,234.8l-4.9-2.8c-0.4-0.2-0.4-0.6,0.1-0.9l1.6-0.9c0.5-0.3,1-0.3,1.5-0.1l4.9,2.8
				c0.4,0.2,0.3,0.6-0.1,0.9l-1.6,0.9C306.8,235,306.3,235.1,305.8,234.8z"/>
			<path class="st11" d="M313.2,239.2l-4.9-2.8c-0.4-0.2-0.3-0.6,0.1-0.9l1.6-0.9c0.5-0.3,1-0.3,1.5-0.1l4.9,2.8
				c0.4,0.2,0.3,0.6-0.1,0.9l-1.6,0.9C314.3,239.4,313.7,239.4,313.2,239.2z"/>
			<path class="st11" d="M239.3,205.4l-4.9-2.8c-0.4-0.2-0.3-0.6,0.1-0.9l4.8-2.8c0.5-0.3,1-0.3,1.5-0.1l4.9,2.8
				c0.4,0.2,0.4,0.6-0.1,0.9l-4.8,2.8C240.4,205.6,239.8,205.6,239.3,205.4z"/>
			<path class="st11" d="M246.9,209.7l-4.9-2.8c-0.4-0.2-0.3-0.6,0.1-0.9l4.8-2.8c0.5-0.3,1-0.3,1.5-0.1l4.9,2.8
				c0.4,0.2,0.4,0.6-0.1,0.9l-4.8,2.8C248,209.9,247.4,210,246.9,209.7z"/>
			<path class="st11" d="M254.4,214.1l-4.9-2.8c-0.4-0.2-0.3-0.6,0.1-0.9l4.8-2.8c0.5-0.3,1-0.3,1.5-0.1l4.9,2.8
				c0.4,0.2,0.4,0.6-0.1,0.9l-4.8,2.8C255.4,214.3,254.9,214.3,254.4,214.1z"/>
			<path class="st11" d="M261.9,218.4l-4.9-2.8c-0.4-0.2-0.3-0.6,0.1-0.9l4.8-2.8c0.5-0.3,1-0.3,1.5-0.1l4.9,2.8
				c0.4,0.2,0.4,0.6-0.1,0.9l-4.8,2.8C263,218.6,262.4,218.7,261.9,218.4z"/>
			<path class="st11" d="M269.5,222.8l-4.9-2.8c-0.4-0.2-0.3-0.6,0.1-0.9l4.8-2.8c0.5-0.3,1-0.3,1.5-0.1l4.9,2.7
				c0.4,0.2,0.4,0.6-0.1,0.9l-4.8,2.8C270.5,222.9,269.9,223,269.5,222.8z"/>
			<path class="st11" d="M277,227.1l-4.9-2.8c-0.4-0.2-0.3-0.6,0.1-0.9l4.8-2.8c0.5-0.3,1-0.3,1.5-0.1l4.9,2.8
				c0.4,0.2,0.4,0.6-0.1,0.9l-4.8,2.8C278,227.3,277.5,227.3,277,227.1z"/>
			<path class="st11" d="M284.5,231.5l-4.9-2.8c-0.4-0.2-0.3-0.6,0.1-0.9l4.8-2.8c0.5-0.3,1-0.3,1.5-0.1l4.9,2.8
				c0.4,0.2,0.4,0.6-0.1,0.9l-4.8,2.8C285.6,231.7,285,231.7,284.5,231.5z"/>
			<path class="st11" d="M292,235.8l-4.9-2.8c-0.4-0.2-0.3-0.6,0.1-0.9l4.8-2.8c0.5-0.3,1-0.3,1.5-0.1l4.9,2.8
				c0.4,0.2,0.4,0.6-0.1,0.9l-4.8,2.8C293.1,236,292.5,236,292,235.8z"/>
			<path class="st11" d="M299.6,240.2l-4.9-2.8c-0.4-0.2-0.3-0.6,0.1-0.9l4.8-2.8c0.5-0.3,1-0.3,1.5-0.1l4.9,2.8
				c0.4,0.2,0.3,0.6-0.1,0.9l-4.8,2.8C300.6,240.4,300.1,240.4,299.6,240.2z"/>
			<path class="st11" d="M196.3,205.9l-14.4-8.3c-0.4-0.2-0.3-0.6,0.1-0.9l4.9-2.8c0.5-0.3,1-0.3,1.5-0.1l14.4,8.3
				c0.4,0.2,0.3,0.6-0.1,0.9l-4.8,2.8C197.4,206.2,196.8,206.2,196.3,205.9z"/>
			<path class="st11" d="M288.8,259.3l-14.4-8.3c-0.4-0.2-0.3-0.6,0.1-0.9l4.8-2.8c0.5-0.3,1-0.3,1.5-0.1l14.4,8.3
				c0.4,0.2,0.3,0.6-0.1,0.9l-4.8,2.8C289.8,259.5,289.3,259.6,288.8,259.3z"/>
			<path class="st11" d="M258.7,251.5l-4.9-2.8c-0.4-0.2-0.3-0.6,0.1-0.9l5.8-3.3c0.5-0.3,1-0.3,1.5-0.1l4.9,2.8
				c0.4,0.2,0.3,0.6-0.1,0.9l-5.8,3.3C259.7,251.8,259.2,251.8,258.7,251.5z"/>
			<path class="st11" d="M204,220l-7.8-4.5c-0.4-0.2-0.4-0.6,0.1-0.9l5.8-3.3c0.5-0.3,1-0.3,1.5-0.1l7.8,4.5
				c0.4,0.2,0.3,0.6-0.1,0.9l-5.8,3.3C205,220.2,204.5,220.2,204,220z"/>
			<path class="st11" d="M251.4,247.4l-7.8-4.5c-0.4-0.2-0.4-0.6,0.1-0.9l5.8-3.3c0.5-0.3,1-0.3,1.5-0.1l7.8,4.5
				c0.4,0.2,0.3,0.6-0.1,0.9l-5.8,3.3C252.5,247.6,251.9,247.6,251.4,247.4z"/>
			<path class="st11" d="M214.9,226.2l-7.8-4.5c-0.4-0.2-0.3-0.6,0.1-0.9l5.8-3.3c0.5-0.3,1-0.3,1.5-0.1l7.8,4.5
				c0.4,0.2,0.3,0.6-0.1,0.9l-5.8,3.3C216,226.5,215.4,226.5,214.9,226.2z"/>
			<path class="st11" d="M214.5,217.5l33.9,19.6c0.2,0.1,0.4,0.3,0.3,0.6c0,0.1-0.2,0.3-0.3,0.3l-5.9,3.4c-0.5,0.2-1,0.2-1.5,0
				l-33.9-19.6L214.5,217.5z"/>
			<path class="st11" d="M279.7,259.4l5.4,3.1c0.3,0.2,0.3,0.5-0.1,0.7l-2.4,1.4c-0.4,0.2-0.8,0.2-1.3,0.1l-5.4-3.1
				c-0.3-0.2-0.3-0.5,0.1-0.7l2.4-1.4C278.9,259.3,279.3,259.3,279.7,259.4z"/>
			<path class="st11" d="M272.1,255l5.4,3.1c0.3,0.2,0.3,0.5-0.1,0.7l-2.4,1.4c-0.4,0.2-0.8,0.2-1.3,0l-5.4-3.1
				c-0.3-0.2-0.3-0.5,0.1-0.7l2.4-1.4C271.3,254.9,271.7,254.9,272.1,255z"/>
			<path class="st11" d="M264.6,250.7l5.4,3.1c0.3,0.2,0.3,0.5-0.1,0.7l-2.4,1.4c-0.4,0.2-0.9,0.2-1.3,0l-5.4-3.1
				c-0.3-0.2-0.3-0.5,0.1-0.7l2.4-1.4C263.7,250.5,264.2,250.5,264.6,250.7z"/>
			<path class="st11" d="M276.3,252.6l5.4,3.1c0.3,0.2,0.3,0.5-0.1,0.7l-2.4,1.4c-0.4,0.2-0.8,0.2-1.3,0l-5.4-3.1
				c-0.3-0.2-0.3-0.5,0.1-0.7l2.4-1.4C275.4,252.5,275.9,252.5,276.3,252.6z"/>
		</g>
		
			<radialGradient id="SVGID_9_" cx="187.758" cy="1904.0066" r="223.34" gradientTransform="matrix(1 0 0 1 0 -1817.8265)" gradientUnits="userSpaceOnUse">
			<stop  offset="0" style="stop-color:#E39A65"/>
			<stop  offset="0.47" style="stop-color:#A92FFB"/>
			<stop  offset="0.59" style="stop-color:#891CFB"/>
			<stop  offset="0.73" style="stop-color:#6507FA"/>
			<stop  offset="1" style="stop-color:#3919BB"/>
		</radialGradient>
		<path class="st12" d="M356,243.9l-143.9-83.1c-2.3-1.5-3.4-4.4-2.6-7.1L242,48.1c0.8-2.6,3.3-3.7,5.6-2.4l143.9,83.1
			c2.3,1.5,3.4,4.4,2.6,7.1l-32.5,105.6C360.7,244.1,358.3,245.2,356,243.9z"/>
		
			<linearGradient id="SVGID_10_" gradientUnits="userSpaceOnUse" x1="212.3173" y1="1962.6912" x2="391.2386" y2="1962.6912" gradientTransform="matrix(1 0 0 1 0 -1817.8265)">
			<stop  offset="0" style="stop-color:#3919BB"/>
			<stop  offset="1" style="stop-color:#6507FA"/>
		</linearGradient>
		<path class="st13" d="M354.6,240.2l-139.5-80.6c-2.2-1.5-3.3-4.2-2.5-6.8l31.1-101c0.4-1.9,2.3-3.1,4.2-2.7
			c0.4,0.1,0.8,0.2,1.1,0.4l139.5,80.6c2.2,1.5,3.3,4.2,2.5,6.8l-31.1,101C359.2,240.4,356.8,241.4,354.6,240.2z"/>
		<path class="st14" d="M354.6,240.2l-139.5-80.6c-2.2-1.5-3.3-4.2-2.5-6.8l31.1-101c0.4-1.9,2.3-3.1,4.2-2.7
			c0.4,0.1,0.8,0.2,1.1,0.4l139.5,80.6c2.2,1.5,3.3,4.2,2.5,6.8l-31.1,101C359.2,240.4,356.8,241.4,354.6,240.2z"/>
		<path class="st14" d="M354.6,240.2l-139.5-80.6c-2.2-1.5-3.3-4.2-2.5-6.8l31.1-101c0.4-1.9,2.3-3.1,4.2-2.7
			c0.4,0.1,0.8,0.2,1.1,0.4l139.5,80.6c2.2,1.5,3.3,4.2,2.5,6.8l-31.1,101C359.2,240.4,356.8,241.4,354.6,240.2z"/>
		<path class="st15" d="M347.1,209.3l-94.5-54.5c-1.5-1-2.2-2.9-1.7-4.7l21.4-69.3c0.3-1.3,1.6-2.2,2.9-1.9c0.3,0.1,0.5,0.2,0.7,0.3
			l94.5,54.5c1.5,1,2.2,2.9,1.7,4.7l-21.4,69.4c-0.3,1.3-1.6,2.1-2.9,1.9C347.6,209.5,347.4,209.4,347.1,209.3z"/>
		
			<radialGradient id="SVGID_11_" cx="106.228" cy="1856.3165" r="347.85" gradientTransform="matrix(1 0 0 1 0 -1817.8265)" gradientUnits="userSpaceOnUse">
			<stop  offset="0" style="stop-color:#E39A65"/>
			<stop  offset="0.47" style="stop-color:#A92FFB"/>
			<stop  offset="0.59" style="stop-color:#891CFB"/>
			<stop  offset="0.73" style="stop-color:#6507FA"/>
			<stop  offset="1" style="stop-color:#3919BB"/>
		</radialGradient>
		<path class="st16" d="M334.4,211l-94.5-54.6c-1.5-1-2.2-2.9-1.7-4.7l21.4-69.4c0.3-1.3,1.6-2.1,2.9-1.9c0.3,0.1,0.5,0.2,0.8,0.3
			l94.5,54.5c1.5,1,2.2,2.9,1.7,4.7l-21.4,69.4c-0.3,1.3-1.5,2.2-2.8,1.9C334.9,211.3,334.6,211.1,334.4,211z"/>
		<g class="st17">
			<path class="st11" d="M334.4,211l-94.5-54.6c-1.5-1-2.2-2.9-1.7-4.7l21.4-69.4c0.3-1.3,1.6-2.1,2.9-1.9c0.3,0.1,0.5,0.2,0.8,0.3
				l94.5,54.5c1.5,1,2.2,2.9,1.7,4.7l-21.4,69.4c-0.3,1.3-1.5,2.2-2.8,1.9C334.9,211.3,334.6,211.1,334.4,211z"/>
		</g>
		<path class="st9" d="M357.7,135.4l-94.5-54.5c-0.8-0.5-1.9-0.5-2.7,0.1c0.5,0,0.9,0.1,1.4,0.3l94.5,54.5c1.5,1,2.2,2.9,1.7,4.7
			l-21.4,69.4c-0.2,0.6-0.5,1.1-1,1.5c1.1-0.1,2-0.8,2.3-1.9l21.4-69.4C359.9,138.3,359.2,136.4,357.7,135.4z"/>
		<path class="st14" d="M215.2,267.6c-1.2,0-2.4-0.3-3.5-0.8l0,0l-37.8-21.9c-0.9-0.4-1.5-1.3-1.6-2.3c0.1-1.3,0.9-2.4,2.1-2.9
			l19.5-11.3c2.5-1.4,5.4-1.5,8-0.3l37.8,21.8c0.9,0.4,1.5,1.3,1.6,2.3c-0.1,1.3-0.9,2.4-2.1,2.9l-19.5,11.3
			C218.3,267.2,216.8,267.6,215.2,267.6z M198.4,228.4c-1.4,0-2.7,0.3-3.9,1L175,240.7c-1,0.6-1.5,1.3-1.5,2c0.1,0.6,0.4,1.1,1,1.4
			l37.8,21.9c2.2,1,4.7,0.9,6.9-0.3l19.5-11.3c1-0.6,1.5-1.3,1.5-2c-0.1-0.6-0.4-1.1-1-1.4l-37.9-21.9
			C200.4,228.6,199.4,228.4,198.4,228.4L198.4,228.4z"/>
		<path class="st9" d="M286.2,117.2l-5.8-3.4c-0.6-0.4-0.8-1-0.6-1.7l0,0c0.1-0.5,0.6-0.8,1-0.7c0.1,0,0.2,0.1,0.3,0.1l5.9,3.4
			c0.6,0.4,0.8,1,0.6,1.7l0,0c-0.1,0.5-0.5,0.8-1,0.7C286.4,117.4,286.3,117.3,286.2,117.2z"/>
		<path class="st9" d="M300.1,125.3l-8.6-5c-0.6-0.4-0.8-1-0.6-1.7l0,0c0.1-0.5,0.5-0.8,1-0.7c0.1,0,0.2,0.1,0.3,0.1l8.6,5
			c0.6,0.4,0.8,1,0.6,1.7l0,0c-0.1,0.5-0.5,0.8-1,0.7C300.3,125.4,300.2,125.3,300.1,125.3z"/>
		<path class="st9" d="M274.4,143.2l-5.8-3.4c-0.6-0.4-0.8-1-0.6-1.7l0,0c0.1-0.5,0.6-0.8,1-0.7c0.1,0,0.2,0.1,0.3,0.1l5.8,3.4
			c0.6,0.4,0.8,1,0.6,1.7l0,0c-0.1,0.5-0.6,0.8-1,0.7C274.6,143.3,274.5,143.3,274.4,143.2z"/>
		<path class="st9" d="M286.8,150.4l-8.6-5c-0.6-0.4-0.8-1-0.6-1.7l0,0c0.1-0.5,0.6-0.8,1-0.7c0.1,0,0.2,0.1,0.3,0.1l8.6,5
			c0.6,0.4,0.8,1,0.6,1.7l0,0c-0.1,0.5-0.6,0.8-1,0.7C287,150.5,286.9,150.4,286.8,150.4z"/>
		<path class="st9" d="M268.7,112.6l-3.6-2.1c-0.6-0.4-0.8-1-0.6-1.7l0,0c0.1-0.5,0.6-0.8,1-0.7c0.1,0,0.2,0.1,0.3,0.1l3.6,2.1
			c0.6,0.4,0.8,1,0.6,1.7l0,0c-0.1,0.5-0.6,0.8-1,0.7C268.9,112.7,268.8,112.7,268.7,112.6z"/>
		<path class="st9" d="M279.7,124.4l-11.1-6.4c-0.6-0.4-0.8-1-0.6-1.7l0,0c0.1-0.5,0.6-0.8,1-0.7c0.1,0,0.2,0.1,0.3,0.1l11.1,6.4
			c0.6,0.4,0.8,1,0.6,1.7l0,0c-0.1,0.5-0.6,0.7-1.1,0.6C279.8,124.5,279.8,124.5,279.7,124.4z"/>
		<path class="st9" d="M269.4,129.4l-3.6-2.1c-0.6-0.4-0.8-1-0.6-1.7l0,0c0.1-0.5,0.5-0.8,1-0.7c0.1,0,0.2,0.1,0.3,0.1l3.6,2.1
			c0.6,0.4,0.8,1,0.6,1.7l0,0c-0.1,0.5-0.6,0.8-1,0.7C269.6,129.5,269.5,129.5,269.4,129.4z"/>
		<path class="st9" d="M288.2,162.1l-9.7-5.6c-0.6-0.4-0.8-1-0.6-1.7l0,0c0.1-0.5,0.5-0.8,1-0.7c0.1,0,0.2,0.1,0.3,0.1l9.8,5.6
			c0.6,0.4,0.8,1,0.6,1.7l0,0c-0.1,0.5-0.6,0.8-1,0.7C288.3,162.2,288.2,162.2,288.2,162.1z"/>
		<path class="st9" d="M265.3,138l-2.3-1.4c-0.6-0.4-0.8-1-0.6-1.7l0,0c0.1-0.5,0.5-0.8,1-0.7c0.1,0,0.2,0.1,0.3,0.1l2.3,1.4
			c0.6,0.4,0.8,1,0.6,1.7l0,0c-0.1,0.5-0.6,0.8-1,0.7C265.5,138.1,265.4,138.1,265.3,138z"/>
		<path class="st9" d="M263.1,147.6l-2.9-1.7c-0.6-0.4-0.8-1-0.6-1.7l0,0c0.1-0.5,0.6-0.8,1-0.7c0.1,0,0.2,0.1,0.3,0.1l2.9,1.7
			c0.6,0.4,0.8,1,0.6,1.7l0,0c-0.1,0.5-0.6,0.8-1,0.7C263.3,147.7,263.2,147.7,263.1,147.6z"/>
		<path class="st9" d="M274.4,154.2l-7.7-4.4c-0.6-0.4-0.8-1-0.6-1.7l0,0c0.1-0.5,0.5-0.8,1-0.7c0.1,0,0.2,0.1,0.3,0.1l7.7,4.4
			c0.6,0.4,0.8,1,0.6,1.7l0,0c-0.1,0.5-0.6,0.8-1,0.7C274.6,154.3,274.5,154.2,274.4,154.2z"/>
		<path class="st9" d="M264.3,153.8l-5.5-3.2c-0.6-0.4-0.8-1-0.6-1.7l0,0c0.1-0.5,0.5-0.8,1-0.7c0.1,0,0.2,0.1,0.3,0.1l5.5,3.2
			c0.6,0.4,0.8,1,0.6,1.7l0,0c-0.1,0.5-0.5,0.8-1,0.7C264.5,153.9,264.4,153.9,264.3,153.8z"/>
		<path class="st9" d="M296.5,167l-3.5-2c-0.6-0.4-0.8-1-0.6-1.7l0,0c0.1-0.5,0.6-0.8,1.1-0.7c0.1,0,0.2,0.1,0.3,0.1l3.5,2
			c0.6,0.4,0.8,1,0.6,1.7l0,0c-0.1,0.5-0.6,0.8-1,0.7C296.7,167.1,296.6,167.1,296.5,167z"/>
		<path class="st9" d="M283,137.2l-9.7-5.6c-0.6-0.4-0.8-1-0.6-1.7l0,0c0.1-0.5,0.6-0.8,1-0.7c0.1,0,0.2,0.1,0.3,0.1l9.7,5.6
			c0.6,0.4,0.8,1,0.6,1.7l0,0c-0.1,0.5-0.5,0.8-1,0.7C283.2,137.3,283.1,137.3,283,137.2z"/>
		<path class="st18" d="M284.1,132.4l-17-9.8c-0.6-0.4-0.8-1-0.6-1.7l0,0c0.1-0.5,0.6-0.8,1-0.7c0.1,0,0.2,0.1,0.3,0.1l17,9.8
			c0.6,0.4,0.8,1,0.6,1.7l0,0c-0.1,0.5-0.6,0.8-1,0.7C284.3,132.5,284.2,132.5,284.1,132.4z"/>
		<path class="st18" d="M274.1,137.6l-9.7-5.6c-0.6-0.4-0.8-1-0.6-1.7l0,0c0.1-0.5,0.6-0.8,1-0.7c0.1,0,0.2,0.1,0.3,0.1l9.8,5.6
			c0.6,0.4,0.8,1,0.6,1.7l0,0c-0.1,0.5-0.6,0.7-1.1,0.6C274.3,137.7,274.2,137.6,274.1,137.6z"/>
		<path class="st18" d="M290.4,141.5l-3.5-2c-0.6-0.4-0.8-1-0.6-1.7l0,0c0.1-0.5,0.6-0.8,1-0.7c0.1,0,0.2,0.1,0.3,0.1l3.5,2
			c0.6,0.4,0.8,1,0.6,1.7l0,0c-0.1,0.5-0.6,0.8-1,0.7C290.5,141.6,290.4,141.6,290.4,141.5z"/>
		<path class="st18" d="M326.4,140.4l-21-12.1c-0.6-0.4-0.8-1-0.6-1.7l0,0c0.1-0.5,0.5-0.8,1-0.7c0.1,0,0.2,0.1,0.3,0.1l21,12.1
			c0.6,0.4,0.8,1,0.6,1.7l0,0c-0.1,0.5-0.5,0.8-1,0.7C326.6,140.5,326.5,140.5,326.4,140.4z"/>
		<path class="st19" d="M273.3,148l-11.7-6.8c-0.6-0.4-0.8-1-0.6-1.7l0,0c0.1-0.5,0.5-0.8,1-0.7c0.1,0,0.2,0.1,0.3,0.1l11.7,6.8
			c0.6,0.4,0.8,1,0.6,1.7l0,0c-0.1,0.5-0.5,0.8-1,0.7C273.5,148.1,273.4,148.1,273.3,148z"/>
		<path class="st19" d="M275.1,110.8l-8.6-5c-0.6-0.4-0.8-1-0.6-1.7l0,0c0.1-0.5,0.6-0.8,1-0.7c0.1,0,0.2,0.1,0.3,0.1l8.6,5
			c0.6,0.4,0.8,1,0.6,1.7l0,0c-0.1,0.5-0.6,0.8-1,0.7C275.2,110.9,275.1,110.9,275.1,110.8z"/>
		<path class="st18" d="M262.5,158.2l-10-5.8c-0.6-0.4-0.8-1-0.6-1.7l0,0c0.1-0.5,0.6-0.8,1-0.7c0.1,0,0.2,0.1,0.3,0.1l10,5.8
			c0.6,0.4,0.8,1,0.6,1.7l0,0c-0.1,0.5-0.6,0.8-1,0.7C262.7,158.3,262.6,158.3,262.5,158.2z"/>
		<path class="st9" d="M328.7,129.6l-4.3-2.5c-0.4-0.3-0.6-0.8-0.5-1.2l0,0c0.1-0.3,0.4-0.6,0.7-0.5c0.1,0,0.2,0.1,0.3,0.1l4.3,2.5
			c0.4,0.3,0.6,0.8,0.5,1.2l0,0c-0.1,0.3-0.4,0.6-0.7,0.5C328.9,129.8,328.8,129.7,328.7,129.6z"/>
		<path class="st9" d="M336.9,134.3l-4.3-2.5c-0.4-0.3-0.6-0.8-0.5-1.2l0,0c0.1-0.3,0.4-0.6,0.7-0.5c0.1,0,0.2,0.1,0.3,0.1l4.3,2.5
			c0.4,0.3,0.6,0.8,0.5,1.2l0,0c-0.1,0.3-0.4,0.6-0.7,0.5C337.1,134.5,337,134.4,336.9,134.3z"/>
		<path class="st9" d="M345,139l-4.3-2.5c-0.4-0.3-0.6-0.8-0.5-1.2l0,0c0.1-0.3,0.4-0.6,0.7-0.5c0.1,0,0.2,0,0.2,0.1l4.3,2.5
			c0.4,0.3,0.6,0.8,0.5,1.2l0,0c-0.1,0.3-0.4,0.6-0.7,0.5C345.1,139.1,345.1,139.1,345,139z"/>
		<path class="st19" d="M349,141.4l-0.1-0.1c-0.4-0.3-0.6-0.8-0.5-1.2l0,0c0.1-0.3,0.4-0.6,0.7-0.5c0.1,0,0.2,0.1,0.3,0.1l0.1,0.1
			c0.4,0.3,0.6,0.8,0.5,1.2l0,0c-0.1,0.3-0.4,0.6-0.7,0.5C349.2,141.5,349.1,141.4,349,141.4z"/>
	</g>
	<g id="Cup">
		<ellipse class="st5" cx="128.5" cy="169.7" rx="19.6" ry="11.3"/>
		
			<radialGradient id="SVGID_12_" cx="97.098" cy="1924.4966" r="165.35" gradientTransform="matrix(1 0 0 1 0 -1817.8265)" gradientUnits="userSpaceOnUse">
			<stop  offset="0" style="stop-color:#E39A65"/>
			<stop  offset="0.15" style="stop-color:#A92FFB"/>
			<stop  offset="0.41" style="stop-color:#3919BB"/>
			<stop  offset="0.93" style="stop-color:#3919BB"/>
		</radialGradient>
		<path class="st20" d="M157.7,88.9h-56l5.2,60.6l0,0c0,3.4,2.2,6.7,6.7,9.3c8.9,5.1,23.3,5.1,32.2,0c4.4-2.6,6.7-5.9,6.7-9.3
			L157.7,88.9z"/>
		<path class="st14" d="M157.7,88.9h-56l0.9,10c1.5,1.8,3.2,3.4,5.2,4.7c10.7,7.1,28.3,8.5,40.4,3.3l-1.9,44.3
			c-0.1,1.9-0.8,3.8-2,5.3c-1.8,2.1-5.3,4.6-12,6.1c4.7-0.2,9.4-1.5,13.6-3.8c4.4-2.6,6.7-5.9,6.7-9.3l4.2-48.6l0,0L157.7,88.9z"/>
		<ellipse class="st14" cx="129.7" cy="88.9" rx="28" ry="16.2"/>
		<ellipse class="st14" cx="129.7" cy="83.2" rx="24.1" ry="13.9"/>
		
			<linearGradient id="SVGID_13_" gradientUnits="userSpaceOnUse" x1="100.018" y1="1904.114" x2="159.328" y2="1904.114" gradientTransform="matrix(1 0 0 1 0 -1817.8265)">
			<stop  offset="0" style="stop-color:#E39A65"/>
			<stop  offset="0.25" style="stop-color:#A92FFB"/>
			<stop  offset="0.56" style="stop-color:#3919BB"/>
		</linearGradient>
		<path class="st21" d="M159.3,88.1L159.3,88.1L159.3,88.1C159.3,88.1,159.3,88,159.3,88.1l-0.5-5.5v0.1c-0.2-4.1-3.1-8.2-8.5-11.3
			c-11.4-6.6-29.8-6.6-41.1,0c-5.6,3.2-8.4,7.4-8.5,11.6l0,0l-0.5,4.8c0,0.1,0,0.3,0,0.4v0.1l0,0c-0.3,4.6,2.6,9.3,8.7,12.8
			c11.6,6.7,30.4,6.7,42,0C156.8,97.4,159.7,92.7,159.3,88.1z"/>
		
			<linearGradient id="SVGID_14_" gradientUnits="userSpaceOnUse" x1="105.5779" y1="1901.0265" x2="153.778" y2="1901.0265" gradientTransform="matrix(1 0 0 1 0 -1817.8265)">
			<stop  offset="0" style="stop-color:#4F1FEC"/>
			<stop  offset="1" style="stop-color:#A92FFB"/>
		</linearGradient>
		<ellipse class="st22" cx="129.7" cy="83.2" rx="24.1" ry="13.9"/>
		
			<linearGradient id="SVGID_15_" gradientUnits="userSpaceOnUse" x1="104.438" y1="1901.0265" x2="152.638" y2="1901.0265" gradientTransform="matrix(1 0 0 1 0 -1817.8265)">
			<stop  offset="0" style="stop-color:#4F1FEC"/>
			<stop  offset="1" style="stop-color:#A92FFB"/>
		</linearGradient>
		<ellipse class="st23" cx="128.5" cy="83.2" rx="24.1" ry="13.9"/>
		<path class="st14" d="M115.5,75.4c9.4-5.4,24.7-5.4,34.1,0l0.3,0.2c-1-0.9-2.1-1.6-3.2-2.3c-9.4-5.4-24.7-5.4-34.1,0
			s-9.4,14-0.3,19.5C106.3,87.4,107.3,80.1,115.5,75.4z"/>
		
			<linearGradient id="SVGID_16_" gradientUnits="userSpaceOnUse" x1="105.5877" y1="1894.6016" x2="166.3377" y2="1894.6016" gradientTransform="matrix(1 0 0 1 0 -1817.8265)">
			<stop  offset="0" style="stop-color:#131060"/>
			<stop  offset="0.19" style="stop-color:#141062"/>
			<stop  offset="0.28" style="stop-color:#19106A"/>
			<stop  offset="0.36" style="stop-color:#221078"/>
			<stop  offset="0.42" style="stop-color:#2E0F8B"/>
			<stop  offset="0.48" style="stop-color:#3E0FA3"/>
			<stop  offset="0.54" style="stop-color:#510EC2"/>
			<stop  offset="0.58" style="stop-color:#680DE5"/>
			<stop  offset="0.61" style="stop-color:#740DF8"/>
			<stop  offset="0.62" style="stop-color:#7A14F0"/>
			<stop  offset="0.68" style="stop-color:#9B3CC3"/>
			<stop  offset="0.75" style="stop-color:#B75D9D"/>
			<stop  offset="0.81" style="stop-color:#CC7680"/>
			<stop  offset="0.88" style="stop-color:#DC886C"/>
			<stop  offset="0.94" style="stop-color:#E5935F"/>
			<stop  offset="1" style="stop-color:#E8975B"/>
		</linearGradient>
		<path class="st24" d="M112.7,75.7c9.4-5.4,24.7-5.4,34.1,0c4.2,2.4,6.5,5.5,7,8.6c0.6-3.9-1.7-8-7-11c-9.4-5.4-24.7-5.4-34.1,0
			c-5.2,3-7.6,7.1-7,11C106.2,81.2,108.5,78.2,112.7,75.7z"/>
		
			<radialGradient id="SVGID_17_" cx="92.618" cy="1887.2266" r="108.16" gradientTransform="matrix(1 0 0 1 0 -1817.8265)" gradientUnits="userSpaceOnUse">
			<stop  offset="0" style="stop-color:#E39A65"/>
			<stop  offset="0.25" style="stop-color:#A92FFB"/>
			<stop  offset="0.74" style="stop-color:#3919BB"/>
		</radialGradient>
		<path class="st25" d="M150.4,71.4c-11.3-6.7-29.8-6.8-41.3-0.4s-11.6,17.2-0.2,23.8s29.8,6.8,41.3,0.4S161.8,78.1,150.4,71.4z
			 M146.7,93c-3.4,1.9-7.1,3.1-11,3.6l-0.4-1.4c-0.2-0.6-0.7-1-1.3-1h-8.6c-0.6,0-1.2,0.4-1.3,1l-0.4,1.4c-3.9-0.5-7.6-1.7-11-3.6
			c-9.4-5.4-9.4-14.2,0-19.7s24.7-5.4,34.1,0S156.1,87.6,146.7,93z"/>
		<path class="st9" d="M146.7,72.3c-9.4-5.4-24.7-5.4-34.1,0c-4.9,2.8-7.3,6.6-7,10.3c0.2-3.4,2.6-6.7,7-9.3
			c9.4-5.4,24.7-5.4,34.1,0c4.5,2.6,6.8,5.9,7,9.3C154,78.9,151.7,75.1,146.7,72.3z"/>
		<path class="st9" d="M150.2,94.2c-11.5,6.5-29.9,6.3-41.3-0.4c-5.4-3.2-8.2-7.3-8.4-11.4c-0.2,4.4,2.6,8.9,8.4,12.4
			c11.3,6.7,29.8,6.8,41.3,0.4c6-3.4,8.9-8,8.6-12.5C158.7,87,155.8,91.1,150.2,94.2z"/>
		<path class="st26" d="M127.1,96h5.2c0.4,0,0.6,0.3,0.6,0.7v0.1c0,0.4-0.3,0.7-0.6,0.7h-5.2c-0.4,0-0.6-0.3-0.6-0.7v-0.1
			C126.5,96.3,126.8,96,127.1,96z"/>
		
			<linearGradient id="SVGID_18_" gradientUnits="userSpaceOnUse" x1="125.8579" y1="1914.3265" x2="134.268" y2="1914.3265" gradientTransform="matrix(1 0 0 1 0 -1817.8265)">
			<stop  offset="0" style="stop-color:#131060"/>
			<stop  offset="0.19" style="stop-color:#141062"/>
			<stop  offset="0.28" style="stop-color:#19106A"/>
			<stop  offset="0.36" style="stop-color:#221078"/>
			<stop  offset="0.42" style="stop-color:#2E0F8B"/>
			<stop  offset="0.48" style="stop-color:#3E0FA3"/>
			<stop  offset="0.54" style="stop-color:#510EC2"/>
			<stop  offset="0.58" style="stop-color:#680DE5"/>
			<stop  offset="0.61" style="stop-color:#740DF8"/>
			<stop  offset="0.62" style="stop-color:#7A14F0"/>
			<stop  offset="0.68" style="stop-color:#9B3CC3"/>
			<stop  offset="0.75" style="stop-color:#B75D9D"/>
			<stop  offset="0.81" style="stop-color:#CC7680"/>
			<stop  offset="0.88" style="stop-color:#DC886C"/>
			<stop  offset="0.94" style="stop-color:#E5935F"/>
			<stop  offset="1" style="stop-color:#E8975B"/>
		</linearGradient>
		<path class="st27" d="M132.3,96h-5.2c-0.4,0-0.6,0.3-0.6,0.7v0.1c0,0.1,0,0.1,0,0.2c0.1-0.3,0.3-0.5,0.6-0.5h5.2
			c0.3,0,0.5,0.2,0.6,0.5c0-0.1,0-0.1,0-0.2v-0.1C132.9,96.3,132.6,96,132.3,96z"/>
		<path class="st18" d="M130.5,143.2c-0.6,2.4-3.1,3.8-5.5,3.2s-3.8-3.1-3.2-5.5s2.9-3.1,5.3-2.4
			C129.5,139.2,131.1,140.8,130.5,143.2z"/>
		<path class="st18" d="M134,138.5c-0.7,0.9-1.9,1-2.8,0.4s-1-1.9-0.4-2.8c0.1-0.1,0.3-0.3,0.4-0.4c0.9-0.9,2.6-1.3,3.4-0.5
			S134.9,137.6,134,138.5z"/>
		<path class="st18" d="M129.3,134.8c0,1.1-0.9,2-2,2c-1.1,0-2-0.9-2-2c0-0.2,0-0.4,0.1-0.6c0.2-1.2,1.4-2.6,2.4-2.4
			C128.8,132,129.5,133.5,129.3,134.8z"/>
		<path class="st18" d="M123.6,134.2c0.5,1,0.2,2.2-0.8,2.7s-2.2,0.2-2.7-0.8c-0.1-0.1-0.1-0.3-0.2-0.5c-0.5-1.2-0.2-2.9,0.8-3.3
			S123.1,133,123.6,134.2z"/>
		<path class="st28" d="M131.5,96.7c0,0,15.6-5.2,9.3-23.2S122.2,50,127.1,35.6c0,0-7.8,11.6-0.5,27.4c7.3,15.8,8.9,13.9,8.8,21.5
			c0,5.1-2.8,9.8-7.3,12.2H131.5z"/>
		<path class="st28" d="M132.9,38.1c0,0-1.6-10.8,8.5-21.6c0,0-8.9,19.9-6,29.8C135.4,46.3,133,40,132.9,38.1z"/>
	</g>
</g>
</svg>
