<?xml version="1.0" encoding="utf-8"?>
<!-- Generator: Adobe Illustrator 23.0.0, SVG Export Plug-In . SVG Version: 6.00 Build 0)  -->
<svg version="1.1" id="Layer_1" xmlns="http://www.w3.org/2000/svg" xmlns:xlink="http://www.w3.org/1999/xlink" x="0px" y="0px"
	 viewBox="0 0 834 900" style="enable-background:new 0 0 834 900;" xml:space="preserve">
<style type="text/css">
	.st0{font-family:'ArialNarrow-Bold';}
	.st1{font-size:174px;}
	.st2{display:none;}
	.st3{display:inline;}
	.st4{fill:#002C4B;}
	.st5{fill-rule:evenodd;clip-rule:evenodd;fill:#FFD94C;}
	.st6{fill-rule:evenodd;clip-rule:evenodd;fill:#FF4154;}
	.st7{display:inline;fill:#398CCB;}
	.st8{display:inline;fill-rule:evenodd;clip-rule:evenodd;fill:#FFFFFF;}
</style>
<g>
	<text transform="matrix(1 0 0 1 136.7566 826.5908)" class="st0 st1">Tailwind</text>
</g>
<image style="display:none;overflow:visible;" width="474" height="428" xlink:href="../../../../../../../../Downloads/vercel-logo.png"  transform="matrix(1.1285 0 0 1.1285 149.5444 14.8369)">
</image>
<g class="st2">
	<g class="st3">
		<path class="st4" d="M559.8,200.4c8-38.7,9.7-68.4,4.5-90c-3.1-12.8-8.7-23.3-17.2-30.8c-9-8-20.4-11.9-33.2-11.9
			c-21.1,0-43.4,9.6-67.1,27.9c-9.7,7.5-19.7,16.5-30.2,27c-0.8-1.1-1.8-2.1-2.8-3c-29.5-26.3-54.4-42.6-75.6-48.9
			c-12.6-3.7-24.5-4.1-35.3-0.5C291.5,74.1,282.4,82,276,93.1c-10.6,18.3-13.4,42.4-9.4,72.1c1.6,12.1,4.4,25.3,8.2,39.6
			c-1.5,0.2-2.9,0.5-4.4,1c-37.4,12.4-64,25.7-80,41c-9.6,9.1-15.8,19.2-18,30.3c-2.4,11.8-0.1,23.6,6.3,34.7
			c10.6,18.3,30,32.7,57.6,44.1c11.1,4.6,23.7,8.7,37.7,12.5c-0.6,1.4-1.1,3-1.5,4.6c-8,38.7-9.7,68.4-4.5,90
			c3.1,12.8,8.7,23.3,17.2,30.8c9,8,20.4,11.9,33.2,11.9c21.1,0,43.4-9.6,67.1-27.9c9.8-7.5,19.9-16.6,30.5-27.3
			c1.1,1.7,2.4,3.3,4,4.7c29.5,26.3,54.4,42.6,75.6,48.9c12.6,3.7,24.5,4.1,35.3,0.5c11.4-3.8,20.5-11.8,26.9-22.9
			c10.6-18.3,13.4-42.4,9.4-72.1c-1.7-12.6-4.6-26.3-8.7-41.2c1.6-0.2,3.2-0.5,4.8-1c37.4-12.4,64-25.7,80-41
			c9.6-9.1,15.8-19.2,18-30.3c2.4-11.8,0.1-23.6-6.3-34.7c-10.6-18.3-30-32.7-57.6-44.1c-11.4-4.7-24.4-9-39-12.8
			C559.1,203.1,559.6,201.8,559.8,200.4z"/>
		<path class="st5" d="M379.3,207.2h75.5c4.6,0,8.9,2.5,11.2,6.5l37.8,65.9c2.3,4,2.3,8.9,0,12.9L466,358.4c-2.3,4-6.6,6.5-11.2,6.5
			h-75.5c-4.6,0-8.9-2.5-11.2-6.5l-37.8-65.9c-2.3-4-2.3-8.9,0-12.9l37.8-65.9C370.4,209.7,374.6,207.2,379.3,207.2z M445.4,223.5
			c4.6,0,8.9,2.5,11.2,6.5l28.5,49.7c2.3,4,2.3,8.9,0,12.8l-28.5,49.7c-2.3,4-6.6,6.5-11.2,6.5h-56.8c-4.6,0-8.9-2.5-11.2-6.5
			l-28.5-49.7c-2.3-4-2.3-8.9,0-12.8l28.5-49.7c2.3-4,6.6-6.5,11.2-6.5H445.4z M435.3,241.2h-36.6c-4.6,0-8.9,2.5-11.2,6.5l0,0
			l-18.3,31.9c-2.3,4-2.3,8.9,0,12.9l0,0l18.3,31.9c2.3,4,6.6,6.5,11.2,6.5l0,0h36.6c4.6,0,8.9-2.5,11.2-6.5l0,0l18.3-31.9
			c2.3-4,2.3-8.9,0-12.9l0,0l-18.3-31.9C444.2,243.7,439.9,241.2,435.3,241.2L435.3,241.2z M425.6,258.2c4.6,0,8.9,2.5,11.2,6.5
			l8.6,15c2.3,4,2.3,8.9,0,12.9l-8.6,15c-2.3,4-6.6,6.5-11.2,6.5h-17.1c-4.6,0-8.9-2.5-11.2-6.5l-8.6-15c-2.3-4-2.3-8.9,0-12.9
			l8.6-15c2.3-4,6.6-6.5,11.2-6.5H425.6z M417,274.9c-4,0-7.7,2.1-9.7,5.6c-2,3.4-2,7.7,0,11.2c2,3.5,5.7,5.6,9.7,5.6l0,0
			c4,0,7.7-2.1,9.7-5.6c2-3.4,2-7.7,0-11.2C424.7,277,421,274.9,417,274.9L417,274.9z M326.6,286.1h20.1"/>
		<path class="st6" d="M313.3,321.9c3.4-1.9,7.7-0.7,9.6,2.7l0,0l1.2,2.2c9.8,17.4,20.1,33.9,30.7,49.6
			c12.6,18.5,26.7,37.2,42.4,56.1c2.5,3,2.1,7.4-0.8,9.9l0,0l-1.6,1.4c-52,45.4-85.7,54.5-101.3,27.2
			c-15.2-26.7-9.7-75.1,16.5-145.4C310.7,324,311.8,322.7,313.3,321.9z M534.7,375.3c3.8-0.7,7.3,1.8,8.1,5.6l0,0l0.4,2
			c12.8,67.2,3.8,100.8-27.1,100.8c-30.3,0-68.8-28.7-115.5-86c-1-1.3-1.6-2.9-1.6-4.5c0-3.9,3.2-7,7.1-7l0,0l2.5,0
			c19.7,0.1,38.8-0.6,57.4-2C487.8,382.5,510.8,379.5,534.7,375.3z M552.4,232.6c1.4-3.6,5.4-5.6,9.2-4.3l0,0l2,0.7
			c66.8,22.7,92.2,47.7,76.1,75c-15.7,26.7-61.3,46.1-136.8,58.2c-1.7,0.3-3.4,0-4.9-0.9c-3.5-2-4.6-6.4-2.6-9.7l0,0l1.3-2.2
			c10.3-17.3,19.6-34.5,27.9-51.6C534.6,277.5,543.8,255.8,552.4,232.6z M331,212.5c1.7-0.3,3.4,0,4.9,0.9c3.5,2,4.6,6.4,2.6,9.7
			l0,0l-1.3,2.2c-10.3,17.3-19.6,34.5-27.9,51.6c-9.8,20.2-19.1,42-27.7,65.2c-1.4,3.6-5.4,5.6-9.2,4.3l0,0l-2-0.7
			c-66.8-22.7-92.2-47.7-76.1-75C209.9,244.1,255.5,224.6,331,212.5z M439.1,130.9c52-45.4,85.7-54.5,101.3-27.2
			c15.2,26.7,9.7,75.1-16.5,145.4c-0.6,1.6-1.7,2.9-3.1,3.7c-3.4,1.9-7.7,0.7-9.6-2.7l0,0l-1.2-2.2c-9.8-17.4-20.1-33.9-30.7-49.6
			c-12.6-18.5-26.7-37.2-42.4-56.1c-2.5-3-2.1-7.4,0.8-9.9l0,0L439.1,130.9z M320.6,88.4c30.3,0,68.8,28.7,115.5,86
			c1,1.3,1.6,2.9,1.6,4.5c0,3.9-3.2,7-7.1,7l0,0l-2.5,0c-19.7-0.1-38.8,0.6-57.4,2c-22,1.7-44.9,4.7-68.8,8.9
			c-3.8,0.7-7.3-1.8-8.1-5.6l0,0l-0.4-2C280.6,122,289.6,88.4,320.6,88.4z"/>
	</g>
</g>
<g class="st2">
	<path class="st7" d="M318.5,61h197.1c77,0,139.5,62.4,139.5,139.5v197.1c0,77-62.4,139.5-139.5,139.5H318.5
		c-77,0-139.5-62.4-139.5-139.5V200.5C179,123.4,241.4,61,318.5,61z"/>
	<path class="st8" d="M415.7,130.7l66.1,38.1v21l80,46.2v79l21.5,12.4v76.3l-66,38.1l-29.3-17L416.6,466l-70.9-40.9l-28.9,16.7
		l-66-38.2v-76.2l20.6-11.9V236l78.3-45.2l0,0v-22L415.7,130.7z M481.8,209.6v35.5l-66,38.1l-66-38.1v-34.5l0,0l-61.1,35.3v59.7
		l28.3-16.3l66,38.1v76.2l-20,11.6l53.7,31l54.1-31.2l-19.6-11.3v-76.2l66-38.1l27.4,15.8v-59.2L481.8,209.6z M468.3,393.8v-46.5
		l40.3,23.3v46.5L468.3,393.8z M566.1,347.2l-40.3,23.3v46.6l40.3-23.3V347.2z M267.9,393.7v-46.5l40.3,23.3V417L267.9,393.7z
		 M365.7,347.2l-40.3,23.3V417l40.3-23.3V347.2z M476.9,332.4l40.3-23.3l40.3,23.3l-40.3,23.3L476.9,332.4z M316.8,309.1l-40.3,23.3
		l40.3,23.2l40.3-23.2L316.8,309.1z M366.9,235.2v-46.5l40.2,23.3v46.5L366.9,235.2z M464.6,188.7l-40.2,23.3v46.5l40.2-23.2V188.7z
		 M375.5,173.8l40.2-23.3l40.3,23.3l-40.3,23.3L375.5,173.8z"/>
</g>
<image style="display:none;overflow:visible;" width="474" height="428" xlink:href="../../../../../../../../Downloads/vercel-logo-removebg-preview.png"  transform="matrix(1.0374 0 0 1.0374 171.1402 49)">
</image>
<image style="display:none;overflow:visible;" width="625" height="625" xlink:href="../../../../../../../../Downloads/chrome.png"  transform="matrix(0.7968 0 0 0.7968 168 41)">
</image>
<g class="st2">
	<ellipse class="st8" cx="412" cy="311.5" rx="117" ry="153.5"/>
	
		<image style="display:inline;overflow:visible;" width="200" height="200" xlink:href="../../../../../../../../Downloads/mantine-removebg-preview.png"  transform="matrix(2.45 0 0 2.45 172 57)">
	</image>
</g>
<image style="overflow:visible;" width="500" height="500" xlink:href="../../../../../../../../Downloads/tailwind.png"  transform="matrix(1.424 0 0 1.424 61 -52)">
</image>
</svg>
